<?xml version="1.0" standalone="no"?>
<!DOCTYPE svg PUBLIC "-//W3C//DTD SVG 1.1//EN" "http://www.w3.org/Graphics/SVG/1.1/DTD/svg11.dtd" >
<svg xmlns="http://www.w3.org/2000/svg">
<metadata></metadata>
<defs>
<font id="where_stars_shine_the_brighRg" horiz-adv-x="393" >
<font-face units-per-em="1000" ascent="750" descent="-250" />
<missing-glyph horiz-adv-x="115" />
<glyph unicode=" "  horiz-adv-x="115" />
<glyph unicode="&#x09;" horiz-adv-x="115" />
<glyph unicode="&#xa0;" horiz-adv-x="115" />
<glyph unicode="!" horiz-adv-x="75" d="M4 469q2 13 13 17t13 -12q1 -59 3 -105t4.5 -88.5t4.5 -88.5t3 -105q-3 -10 -12.5 -14.5t-13.5 9.5q-1 59 -3 105t-4.5 89t-4.5 88.5t-3 104.5zM24 37q1 0 1 0.5t1 0.5q11 11 21.5 6.5t4.5 -21.5q-2 -7 -5 -10.5t-8 -6.5q-4 0 -6 -2q-7 -1 -11 2t-5 7.5t0 10.5t5 11z" />
<glyph unicode="&#x22;" horiz-adv-x="152" d="M20 432q3 7 8.5 12t11.5 6.5t10.5 -1t5.5 -10.5l-4 -101q-3 -10 -12.5 -14.5t-13.5 9.5zM85 435q3 7 8.5 12t11.5 6.5t10.5 -1t5.5 -10.5l-4 -101q-3 -10 -12.5 -14.5t-13.5 9.5z" />
<glyph unicode="#" horiz-adv-x="253" d="M34 155q-8 -1 -11 2.5t-2.5 8.5t4 10t8.5 7l32 10q-6 27 -9 55q-11 -2 -22.5 -3t-22.5 -1q-7 1 -9 5t-0.5 8.5t5 8.5t7.5 6q19 0 40 3q-1 9 -1.5 17.5t-0.5 16.5q2 13 13 17t13 -12q0 -8 0.5 -17t1.5 -17l72 13v19q2 13 13 17t13 -12v-20q15 2 29.5 3.5t29.5 1.5h2 q5 -1 8 -4q0 -1 1 -2l1 -2v-7q-2 -5 -5.5 -8.5t-8.5 -4.5h-5q-11 -1 -23.5 -2t-26.5 -3l3 -52q7 1 13.5 1h13.5q5 3 10.5 1t6.5 -11q0 -8 -7.5 -13.5t-15.5 -4.5l-21 -3v-27t-2 -27q-3 -10 -12.5 -14.5t-13.5 9.5q2 14 2 28v28q-28 -4 -59 -12q4 -23 12 -45q4 -6 -0.5 -14 t-12.5 -9q-6 1 -10 6q-5 14 -9 28t-7 28q-10 -2 -19 -5zM83 252q2 -14 4 -26.5t4 -25.5q17 5 33 8.5t33 5.5l-3 50zM103 132l1 -1v1h-1z" />
<glyph unicode="$" horiz-adv-x="241" d="M109 398q2 13 13 17t13 -12v-70q31 3 56.5 -3t34.5 -28q2 -5 0 -11t-6 -9.5t-8.5 -3t-8.5 6.5q-6 14 -25 18t-43 2q0 -22 0.5 -43.5t1.5 -43.5q20 -6 38.5 -12.5t32.5 -15.5q3 -2 3.5 -4.5t1.5 -6.5q-3 -28 -23 -44t-46 -21q2 -17 4 -34.5t5 -34.5q2 -7 0 -12v-1 q-5 -8 -13.5 -9.5t-11.5 9.5q-4 20 -6.5 40.5t-4.5 40.5q-19 2 -36 9t-28 20q-5 10 1 19t17 4q7 -8 18.5 -13t24.5 -8l-3 55q-30 9 -58 20.5t-47 39.5q-6 10 2 21q2 2 8 11t12 12q11 7 33 14t48 12v69zM32 272q12 -17 33 -27.5t45 -18.5q-1 19 -1 37.5v37.5 q-27 -5 -49 -13.5t-28 -15.5zM186 169q-23 13 -48 21q2 -20 3.5 -36t0.5 -12q17 0 29.5 6.5t14.5 20.5z" />
<glyph unicode="%" horiz-adv-x="349" d="M58 438q8 2 21 1t26.5 -4t25.5 -8t18 -12q22 -29 18.5 -57.5t-22 -48.5t-47.5 -27.5t-58 6.5q-8 4 -15.5 7t-13.5 9q-10 10 -9.5 32.5t8 45t20.5 39.5t28 17zM108 402q-23 13 -41 4t-29 -24q-2 -2 -4.5 -9.5t-5 -16t-2.5 -17t5 -12.5q17 -15 35 -18t33 1.5t25.5 15.5 t13.5 24.5t-4 27t-26 24.5zM245 479q8 11 19.5 9.5t6.5 -15.5q-25 -54 -50.5 -113t-51 -119.5t-51 -119.5t-50.5 -113q-8 -8 -18.5 -7t-8.5 14q25 54 51 113.5t51.5 119.5t51 119t50.5 112zM223 248q8 2 21 1t26.5 -4t25.5 -8t18 -12q22 -29 18.5 -57.5t-22 -48.5 t-47.5 -27.5t-58 6.5q-8 4 -15.5 7t-13.5 9q-10 10 -9.5 32.5t8 45t20.5 39.5t28 17zM273 212q-23 13 -41 4t-29 -24q-2 -2 -4.5 -9.5t-5 -16t-2.5 -17t5 -12.5q17 -15 35 -18t33 1.5t25.5 15.5t13.5 24.5t-4 27t-26 24.5z" />
<glyph unicode="&#x26;" horiz-adv-x="354" d="M337 38q7 -3 8 -7.5t-1 -9.5t-7 -8t-11 -3q-33 6 -62 23t-57 36q-24 -13 -53 -28t-57 -25t-52.5 -12.5t-38.5 10.5q-11 19 -4 39.5t23 40t36.5 37t37.5 30.5q-5 6 -10 11.5t-10 11.5q-23 28 -37 65q-13 32 0 55.5t38.5 36.5t56.5 15t55.5 -8.5t35 -34.5t-5.5 -63 q-12 -29 -35 -49t-49 -38q17 -17 36 -34t40 -32q15 9 29 18t25 16.5t19 11.5t12 2q10 -5 10 -14.5t-4 -7.5q-4 -1 -12 -5t-18 -9.5t-21 -12t-21 -12.5q26 -17 52 -29t52 -17zM99 207q5 -7 11 -14t13 -14q11 9 30.5 24.5t34 34.5t18.5 38.5t-15 36.5q-11 8 -29.5 12.5 t-37.5 3.5t-35 -8.5t-21 -23.5q-8 -26 4 -49t27 -41zM113 146q-58 -48 -76.5 -75.5t-5.5 -35.5t54 4t101 44q-20 15 -38 30.5t-35 32.5z" />
<glyph unicode="'" horiz-adv-x="95" d="M20 432q3 7 8.5 12t11.5 6.5t10.5 -1t5.5 -10.5l-4 -101q-3 -10 -12.5 -14.5t-13.5 9.5l-6 99v0z" />
<glyph unicode="(" horiz-adv-x="176" d="M144 514q11 8 17.5 1t-0.5 -18q-33 -36 -61 -78.5t-45.5 -88t-23 -91.5t5.5 -88.5t40.5 -79.5t82.5 -64q-1 -14 -16 -21q-4 -1 -3.5 -1t-4.5 1q-84 51 -112.5 117.5t-18.5 138.5t49 142.5t90 129.5z" />
<glyph unicode=")" horiz-adv-x="179" d="M25 514q51 -59 90 -129.5t49 -142.5t-18.5 -138.5t-112.5 -117.5q-5 -1 -4.5 -1t-3.5 1q-15 7 -16 21q53 27 82.5 64t40.5 79.5t5.5 88.5t-23 91.5t-45.5 88t-61 78.5q-7 11 -0.5 18t17.5 -1z" />
<glyph unicode="*" horiz-adv-x="189" d="M9 203q-3 5 -2 11t5 9.5t8.5 4.5t9.5 -5q9 -16 35 -39q-1 14 -0.5 27.5t0.5 27.5q2 13 13 17t13 -12q0 -7 1 -24t3 -38l44 54q10 13 19 7t1 -20q-5 -5 -18.5 -23t-30.5 -39q13 1 24.5 1h20.5q2 0 4 0.5t4 0.5q7 0 10 -3.5t2 -8t-4 -9t-7 -7.5q-9 -2 -19.5 -3t-22.5 -1 q5 -5 9.5 -9t8.5 -9q5 -1 6.5 -4.5t1 -8t-3.5 -8.5t-7 -6h-2q-7 -1 -11 2l-27 25q-1 -14 -2 -23.5t-3 -12.5q-8 -8 -15 -6t-7 10q-2 0 -0.5 6t0.5 10q0 4 -0.5 8t-0.5 8q-14 -15 -24 -25t-14 -12q-9 -2 -13 6q0 1 -1 2q-2 7 2.5 14t10.5 8l21 25q-9 0 -17.5 0.5t-16.5 0.5 q-7 1 -9 5.5t-0.5 9.5t6 9t10.5 4h19q-10 10 -18.5 20.5t-15.5 22.5z" />
<glyph unicode="+" horiz-adv-x="197" d="M80 263q2 13 13 17t13 -12q1 -17 2 -32.5t3 -32.5h56q2 0 4 0.5t4 0.5q7 0 10 -3.5t2 -8t-4 -9t-7 -7.5q-11 -2 -27.5 -2.5t-34.5 -0.5q2 -12 3.5 -24t2.5 -25q1 -1 1 -2.5t1 -3.5v-1q-3 -10 -12.5 -14.5t-13.5 9.5q-3 15 -5 30.5t-4 30.5q-20 1 -38.5 1.5t-31.5 0.5 q-7 1 -9 5.5t-0.5 9.5t6 9t10.5 4h60q-2 15 -2.5 30t-1.5 30z" />
<glyph unicode="," horiz-adv-x="78" d="M22 18q2 13 13 17t13 -12q1 -12 3.5 -33.5t-13.5 -44.5q-9 -9 -17 -4t-3 17q10 14 7.5 29.5t-3.5 30.5z" />
<glyph unicode="-" horiz-adv-x="154" d="M17 132q-7 1 -9 5.5t-0.5 9.5t6 9t10.5 4q25 0 49.5 -0.5t48.5 -0.5q2 0 4 0.5t4 0.5q7 0 10 -3.5t2 -8t-4 -9t-7 -7.5q-29 -4 -57 -2t-57 2z" />
<glyph unicode="." horiz-adv-x="75" d="M21 37q1 0 1 0.5t1 0.5q11 11 21.5 6.5t4.5 -21.5q-2 -7 -5 -10.5t-8 -6.5q-4 0 -6 -2q-7 -1 -11 2t-5 7.5t0 10.5t5 11l2 2v0z" />
<glyph unicode="/" horiz-adv-x="246" d="M210 482q8 11 19.5 9.5t6.5 -15.5q-25 -54 -50.5 -113t-51 -119.5t-51 -119.5t-50.5 -113q-8 -8 -18.5 -7t-8.5 14q25 54 51 113.5t51.5 119.5t51 119t50.5 112z" />
<glyph unicode="0" horiz-adv-x="343" d="M120 472q52 30 88 21t59.5 -40t36.5 -74.5t20 -81.5q5 -27 4 -61t-8 -69t-21 -67.5t-36 -55.5t-51.5 -33.5t-68.5 -1.5q-46 19 -76.5 53.5t-46 77.5t-17 90t11 92t39 84.5t66.5 65.5zM299 190q5 53 -3.5 110.5t-30 99t-55 58t-79.5 -11.5q-48 -28 -72 -76t-27 -101.5 t14 -106t52 -90.5q37 -40 71.5 -40.5t62 22.5t45.5 61t22 75z" />
<glyph unicode="1" horiz-adv-x="216" d="M19 2q-7 1 -8.5 5t0 8.5t5 8.5t7.5 6q20 -1 40.5 -1t41.5 2q3 106 2 210.5t2 210.5q-20 -23 -39 -47t-39 -46q-11 -9 -20 -3q-4 8 -4 12q3 13 13 16l5 7l29 34q13 16 27 32t30 32q2 9 10 12.5t12 -1.5q5 -2 6 -7.5t-3 -10.5q-5 -113 -3 -224.5t-2 -224.5q14 2 27 3.5 t27 4.5q8 3 14 0q1 0 1 -1q7 -8 3.5 -14.5t-11.5 -11.5q-42 -8 -86 -11t-87 -1z" />
<glyph unicode="2" horiz-adv-x="337" d="M34 -3q-7 1 -10 6q-7 -1 -10 6.5t4 15.5q32 38 75.5 89.5t83.5 105.5t69.5 104.5t34.5 88.5q3 26 -15 47.5t-44 26.5q-29 6 -58 2t-55 -15.5t-47.5 -30t-35.5 -42.5q-8 -12 -18 -8.5t-4 17.5q6 26 32.5 48.5t61 37t73 19.5t70 -3t51 -31t15.5 -65q-7 -39 -28 -82.5 t-49 -86t-59 -81t-57.5 -68.5t-44 -49t-19.5 -22q-1 0 17.5 2.5t47 5.5t62 7.5t62 7.5t48 5.5t20.5 2.5q5 2 9 -0.5t5 -10.5v-1q-2 -5 -3 -6.5t-9 -7.5q-5 0 -35.5 -4t-72 -9.5t-87 -11.5t-80.5 -10z" />
<glyph unicode="3" horiz-adv-x="328" d="M113 327q46 18 66 42t20 47t-15.5 42t-38.5 26t-50.5 -0.5t-50.5 -37.5q-16 1 -19.5 7.5t1.5 15.5t17 18.5t27 17t31.5 10.5t30.5 0q45 -11 68 -35t26.5 -52t-11.5 -56t-45 -48q74 -10 108 -42.5t36.5 -73.5t-20 -84.5t-60 -75t-85.5 -44.5t-96 6q-18 8 -26.5 16.5 t-12.5 18.5t-6 22.5t-5 29.5q0 5 3.5 9.5t7.5 7t8 1t6 -8.5q3 -12 4.5 -22.5t4.5 -19t9.5 -15.5t19.5 -12q42 -15 86 -0.5t77.5 44t51.5 68t8.5 72.5t-51.5 57t-128 21q-13 2 -10.5 12t10.5 15v1h3v0z" />
<glyph unicode="4" horiz-adv-x="284" d="M160 496q2 13 13 17t13 -12q1 -54 3.5 -107.5t6.5 -107.5q34 1 69 -6q12 -5 8 -15.5t-15 -12.5h-3q-24 4 -57 3q4 -53 6.5 -117t2.5 -118v-1v-3q0 -2 -1 -2q0 -2 -1 -2l-3 -4l-2 -3q-1 0 -2 -1q-2 -2 -5 -2q-2 -2 -4 0q-4 0 -5 3q-1 2 -2 3.5t-1 3.5v2q0 27 -1 57.5 t-2 62t-3 62.5t-3 58q-38 -4 -79 -10t-77 -11q-16 -2 -14 14q6 31 15 60.5t17.5 58.5t15 59t8.5 61q2 13 13 17t13 -12q-3 -66 -22 -126l-18 -54q-1 -3 -2 -8.5t-2.5 -10t-3 -8t-1.5 -2.5l-4 -20q34 5 69 12t70 11q-4 53 -6.5 105.5t-3.5 105.5z" />
<glyph unicode="5" horiz-adv-x="339" d="M227 515q7 0 8.5 -4t-0.5 -9t-5.5 -9.5t-5.5 -5.5l-11 -2t-28 -4.5t-37 -5.5t-37.5 -6t-30.5 -5.5t-16 -2.5q0 -3 2 -17t3.5 -33t3.5 -39t2 -35q40 22 78 29.5t69.5 -1.5t55 -34t35.5 -66q16 -65 3.5 -122t-64.5 -99q-25 -20 -65 -33t-79.5 -11.5t-69.5 21.5t-36 65 q-2 6 1.5 11.5t8 8.5t9 1.5t5.5 -8.5q6 -42 38 -59.5t72 -14.5t78.5 24t57.5 56q16 29 21.5 64t0.5 67.5t-20.5 59.5t-42.5 40t-64.5 9t-86.5 -32q-3 -5 -7.5 -8.5t-9.5 -1.5q-10 -2 -13 10q-1 17 -2.5 40.5t-4 46t-4.5 38.5t-3 18q-11 3 -6.5 14t12.5 14q3 0 17.5 2.5 t34 5.5t42 7.5t42 7.5t33 5.5t16.5 2.5z" />
<glyph unicode="6" horiz-adv-x="363" d="M150 518q3 6 9 8.5t11 1.5t8.5 -5.5t0.5 -12.5q0 -3 -13 -28.5t-31 -60t-37.5 -72.5t-32.5 -67q39 34 80.5 44.5t79 2t67 -33t43.5 -59t10 -76.5t-34 -85q-14 -21 -40.5 -40t-57 -30.5t-62 -12.5t-56.5 14q-44 26 -66 54t-27 60.5t5.5 71t31.5 86.5t50 107t61 133z M186 306q-31 -1 -62.5 -19t-55 -44.5t-36 -58t-4.5 -58.5q10 -37 33.5 -59.5t53 -32t62.5 -6.5t61.5 18.5t49.5 41.5t28 63q6 33 -2.5 62t-27 50t-44.5 32.5t-56 10.5z" />
<glyph unicode="7" horiz-adv-x="306" d="M273 486q10 -1 10.5 -8t-4.5 -13v-1q0 -2 -10 -22.5t-27.5 -52.5t-39.5 -72t-44.5 -82t-44.5 -81.5t-39.5 -70.5t-27.5 -49.5l-10 -18.5q-1 -6 -4.5 -9t-8 -2.5t-8 4t-3.5 10.5q0 2 17 35t43 81t56 104t56 104t43 81t17 35q-1 0 -18 1.5t-42.5 3.5t-55 4t-55.5 4t-44 3 t-20 1q-8 0 -8.5 5t1.5 10.5t5.5 9.5t4.5 3q3 0 23.5 -1t49.5 -3t62 -4t61 -4t46.5 -3.5z" />
<glyph unicode="8" horiz-adv-x="411" d="M312 476q12 -5 8 -15.5t-15 -12.5q-39 15 -80 15.5t-74 -8.5t-53.5 -25.5t-18.5 -35.5t32 -38.5t98 -33.5q4 4 17 18.5t28 29t28 25.5t18 9q1 0 3 -2q9 -11 -3 -23l-17.5 -17.5l-20.5 -20.5t-18.5 -18t-12.5 -11q25 -7 52 -19.5t50.5 -29.5t41 -38t22 -43.5t-6 -47 t-42.5 -48.5q-19 -15 -52 -32t-75.5 -28.5t-92 -13.5t-101.5 14q-27 12 -26 36.5t18.5 55t45 62.5t54 58.5t46.5 44t22 18.5q-71 15 -101.5 39t-31.5 50t22 49.5t60.5 38t84 16t91.5 -17.5zM308 89q37 20 51.5 41t12.5 40.5t-17.5 38t-39 34t-51.5 28t-55 21.5 q-3 -2 -20.5 -18.5t-41 -41.5t-48.5 -53.5t-42.5 -54.5t-23.5 -45.5t9 -25.5q30 -12 66 -13t71.5 5t69 18t59.5 26z" />
<glyph unicode="9" horiz-adv-x="360" d="M199 0q-3 -6 -9 -8.5t-11 -1.5t-8.5 5.5t-0.5 12.5q0 3 13 28.5t31 60t37 72.5t33 67q-39 -35 -80.5 -45t-79 -1.5t-67 33t-43.5 59t-10 76t34 85.5q14 21 40.5 40t57 30.5t62 12.5t56.5 -14q44 -26 66 -54t27 -60.5t-5.5 -71t-31.5 -86.5t-50 -107t-61 -133zM163 212 q31 1 62.5 19t55 44.5t35.5 58t5 58.5q-10 37 -33.5 59.5t-53.5 32t-62.5 6.5t-61 -18.5t-50 -41.5t-27.5 -63q-6 -33 2.5 -62t27 -50t44.5 -32.5t56 -10.5z" />
<glyph unicode=":" horiz-adv-x="80" d="M21 37q1 0 1 0.5t1 0.5q11 11 21.5 6.5t4.5 -21.5q-2 -7 -5 -10.5t-8 -6.5q-4 0 -6 -2q-7 -1 -11 2t-5 7.5t0 10.5t5 11zM21 198q1 0 1 0.5t1 0.5q11 11 21.5 6.5t4.5 -21.5q-2 -7 -5 -10.5t-8 -6.5q-4 0 -6 -2q-7 -1 -11 2t-5 7.5t0 10.5t5 11z" />
<glyph unicode=";" horiz-adv-x="82" d="M22 18q2 13 13 17t13 -12q1 -12 3.5 -33.5t-13.5 -44.5q-9 -9 -17 -4t-3 17q10 14 7.5 29.5t-3.5 30.5zM21 198q1 0 1 0.5t1 0.5q11 11 21.5 6.5t4.5 -21.5q-2 -7 -5 -10.5t-8 -6.5q-4 0 -6 -2q-7 -1 -11 2t-5 7.5t0 10.5t5 11z" />
<glyph unicode="&#x3c;" horiz-adv-x="161" d="M7 144q-6 12 8 28q15 13 32.5 25.5t33.5 22t27.5 16t14.5 8.5q7 5 12 4t7 -5t1 -9.5t-7 -9.5q-4 -3 -18.5 -13.5t-31 -21.5t-30.5 -21t-17 -11q1 -1 11 -9t25 -19t33 -23t36 -21q5 -27 -15 -26q-2 0 -14.5 8t-30.5 20.5t-38.5 27.5t-38.5 29z" />
<glyph unicode="=" horiz-adv-x="201" d="M17 143q-7 1 -9 5.5t-0.5 9.5t6 9t10.5 4h138q2 0 4 0.5t4 0.5q7 0 10 -3.5t2 -8t-4 -9t-7 -7.5q-14 -2 -34.5 -2.5t-42 0t-42 1t-35.5 0.5zM17 207q-7 1 -9 5.5t-0.5 9.5t6 9t10.5 4h138q2 0 4 0.5t4 0.5q7 0 10 -3.5t2 -8t-4 -9t-7 -7.5q-14 -2 -34.5 -2.5t-42 0t-42 1 t-35.5 0.5z" />
<glyph unicode="&#x3e;" horiz-adv-x="160" d="M143 144q-18 -14 -38.5 -29t-38.5 -27.5t-30.5 -20.5t-14.5 -8q-20 -1 -15 26q18 9 36 21t33 23t24.5 19t11.5 9q-3 1 -17 11t-30.5 21t-31 21.5t-18.5 13.5q-6 4 -7 9.5t1 9.5t7 5t12 -4q3 -2 14.5 -8.5t27.5 -16t33.5 -22t32.5 -25.5q14 -16 8 -28z" />
<glyph unicode="?" horiz-adv-x="269" d="M73 96q0 1 -5 15.5t-9.5 33t-7.5 36t0 24.5l11 5q32 -15 62.5 -11.5t53.5 22t36.5 50.5t10.5 75q-3 52 -20 87t-43.5 50t-60 9t-70.5 -36q-3 -5 -8 -6.5t-9.5 0t-8 5.5t-2.5 11q56 51 105.5 55t84.5 -25.5t50.5 -84.5t2.5 -121q-12 -63 -52 -93t-115 -18q2 -8 5 -19 t6.5 -22t6 -21t2.5 -16q-3 -10 -12.5 -14.5t-13.5 9.5zM79 36q1 0 1 0.5t1 0.5q11 11 21.5 6.5t4.5 -21.5q-2 -7 -5 -10.5t-8 -6.5q-4 0 -6 -2q-7 -1 -11 2t-5 7.5t0 10.5t5 11z" />
<glyph unicode="@" horiz-adv-x="553" d="M374 -29q-9 9 -16 23.5t-14.5 29.5t-18 28.5t-27.5 20.5q-6 3 -18 5.5t-22 -0.5q-4 -2 -13.5 -7t-19.5 -12t-17.5 -14t-5.5 -12q12 -7 24 -7.5t23.5 2t23.5 6t24 5.5q7 0 10 -4t2 -9t-5 -9.5t-10 -5.5q-3 0 -16 -4t-33 -8q-37 -7 -52.5 1.5t-15 24.5t14 35t33.5 32.5 t44 17t45 -10.5q22 -15 32.5 -30.5t20.5 -32.5q0 34 -10.5 66t-30 52t-47.5 22t-62 -23q-4 -2 -14 -9t-17 -13q-2 -8 -8 -12.5t-14 1.5l-2 2q-5 10 3 21q8 9 19 16.5t20 14.5q31 23 58.5 27.5t50 -5t39 -30t27 -47.5t13.5 -57.5t-2 -60.5q12 2 24.5 4t23.5 7q40 18 53 51.5 t8 70t-25.5 71t-47.5 54.5q-36 26 -83 39.5t-95.5 13t-93.5 -15.5t-76 -45q-21 -21 -33 -52t-15.5 -64.5t1 -66t17.5 -57.5q18 -35 51.5 -57.5t70.5 -35.5q27 -8 55.5 -11.5t56.5 -5.5q24 -1 46 4.5t38.5 10t25 4t4.5 -13.5q-16 -17 -47 -25t-73 -9q-46 2 -87.5 12.5 t-83.5 29.5q-47 21 -72.5 66.5t-30.5 98t10 104t50 85.5q36 36 85.5 53.5t102.5 18.5t104 -14t90 -43q19 -14 35.5 -38t29 -51t19 -53t5.5 -42q-2 -38 -23.5 -64.5t-48.5 -42.5t-52.5 -21t-34.5 0z" />
<glyph unicode="A" d="M1 59q15 32 36.5 86t47.5 115.5t56 124.5t60 113q7 5 12 2t9 -9q26 -48 48 -109t40 -123q5 0 10 0.5t10 0.5q7 0 10 -4t2 -9t-5 -9.5t-10 -5.5h-10q10 -35 18.5 -67.5t15.5 -60t12.5 -48t10.5 -32.5q-2 -16 -15 -17.5t-20 11.5q-11 53 -23 105.5t-27 105.5 q-44 -5 -91 -13.5t-107 -11.5q-18 -41 -35.5 -82t-33.5 -83q-5 -6 -9.5 -5.5t-8 4.5t-4.5 10t1 11zM212 460q-27 -57 -54.5 -113.5t-53.5 -113.5q45 3 89 10.5t89 12.5q-15 52 -32.5 103t-37.5 101z" />
<glyph unicode="B" horiz-adv-x="283" d="M-23 448q-7 1 -9 5.5t-0.5 9.5t6 9t10.5 4q8 -1 14.5 -1h12.5v10q2 13 13 17t13 -12v-16l46 -5q18 -2 43 -6t47.5 -13t37 -24.5t12.5 -42.5q-2 -14 -15 -28t-32.5 -27.5t-42 -26.5t-42.5 -25q21 -1 41.5 -2t40.5 -4q67 -9 89 -35.5t12 -60t-44.5 -68.5t-79 -61 t-92.5 -37.5t-85 2.5q-13 5 -20 17.5t-16 23.5q-5 10 1 19t17 4q8 -9 15 -19.5t17 -18.5q14 -10 35 -10q-1 106 -4.5 210.5t-5.5 210.5h-20t-15 1zM48 30q0 -1 -1 -2q33 6 70 26.5t68 47.5t51 56t19 52q-21 16 -47 24t-54 11t-56.5 3h-53.5h-1q2 -55 3 -109t2 -109zM45 275 v1q19 14 39.5 26t40.5 24.5t38 26.5t33 31q-3 16 -18.5 27.5t-38.5 18t-50 10t-51 5.5z" />
<glyph unicode="C" horiz-adv-x="313" d="M251 361q1 -12 -10 -17.5t-15 8.5q-2 20 -3 39t-7 37q-6 16 -21 23t-31 -2q-23 -13 -44.5 -41.5t-38.5 -64.5t-29.5 -77.5t-16.5 -80.5t0.5 -73.5t20.5 -56.5q17 -24 47 -27t61 6.5t57.5 28t37.5 39.5q4 7 7 16t5 17q5 11 14.5 12.5t11.5 -12.5q-11 -38 -33.5 -66.5 t-53 -46t-66.5 -22t-73 6.5q-38 11 -53.5 49.5t-14 89.5t16.5 108t37.5 105t49 80.5t51.5 35.5q34 4 51.5 -5.5t26 -26t10.5 -38.5t5 -44z" />
<glyph unicode="D" horiz-adv-x="307" d="M-2 482q-1 7 4 12.5t13 5.5q58 19 106.5 2.5t85.5 -54.5t60 -91t28.5 -107t-7.5 -102.5t-49 -76.5q-35 -28 -59 -41t-48 -18.5t-54 -8t-77 -9.5q-8 -1 -11 2.5t-2.5 8.5t4 10t8.5 7q34 5 64.5 7t58 7.5t53 18t50.5 37.5q31 31 40.5 76.5t1.5 94t-30.5 94.5t-55.5 77.5 t-73.5 42.5t-83.5 -9q8 -104 11 -207.5t10 -207.5q-3 -10 -12.5 -14.5t-13.5 9.5q-7 109 -10.5 217t-11.5 217z" />
<glyph unicode="E" horiz-adv-x="301" d="M21 22q-10 1 -10.5 8t4.5 13v1q-1 112 -8 222.5t-8 222.5q1 6 4.5 10.5t8 6t8.5 -1t5 -9.5q54 1 106.5 6t105.5 6q7 0 10 -4t2 -9t-5 -9.5t-10 -5.5q-52 -1 -104 -5.5t-105 -6.5q1 -90 6 -180q41 1 79.5 6t78.5 6q7 0 10 -4t2 -9t-5 -9.5t-10 -5.5q-38 -1 -76.5 -5.5 t-76.5 -6.5q2 -53 4.5 -104.5t3.5 -103.5q58 3 114 12t114 11q7 0 10 -4t2 -9t-5 -9.5t-10 -5.5q-62 -2 -122 -12t-123 -12z" />
<glyph unicode="F" horiz-adv-x="128" d="M17 272q-13 2 -10 12t11 15v152q-9 0 -17.5 -0.5t-16.5 -0.5q-7 1 -9 5t-0.5 8.5t5 8.5t7.5 6h15.5t15.5 1v25q2 13 13 17t13 -12v-28q58 4 116 10.5t116 8.5q7 0 10 -4t2 -9t-5 -9.5t-10 -5.5q-57 -2 -114.5 -8t-114.5 -11v-151q31 4 60.5 11t60.5 9q7 0 10 -4t2 -9 t-5 -9.5t-10 -5.5q-6 0 -18.5 -2.5t-29 -5.5t-34.5 -6.5t-36 -5.5v-243q-3 -10 -12.5 -14.5t-13.5 9.5v246h-1v0z" />
<glyph unicode="G" horiz-adv-x="365" d="M340 251q0 -2 -0.5 -3t-0.5 -2q-5 -85 -7.5 -157t-6.5 -111v-5h-2q-5 -8 -13 -9t-11 10q1 26 1.5 41t0.5 25.5t-0.5 19.5t-0.5 23q-18 -25 -42.5 -41t-52.5 -23t-57 -4.5t-56 14.5q-37 13 -61 57t-29.5 102t10.5 121.5t59 117.5q17 21 46.5 46t62.5 38t65.5 6.5 t56.5 -48.5q11 -20 12 -42.5t5 -45.5q1 -12 -10 -17.5t-15 8.5q-4 20 -5.5 40t-9.5 38q-15 35 -42 39.5t-55.5 -7.5t-54.5 -33.5t-39 -38.5q-20 -26 -33.5 -59.5t-19.5 -70.5t-4.5 -73.5t10.5 -68.5q16 -55 53 -77t79 -18.5t79.5 30t53.5 68.5q0 7 1 19.5t1.5 26.5t1.5 26.5 t2 20.5q-20 5 -43.5 1t-43.5 -6q-7 1 -9 5t-0.5 8.5t5 8.5t7.5 6q12 1 26 3t28.5 3.5t28 1t24.5 -6.5z" />
<glyph unicode="H" horiz-adv-x="347" d="M2 497q0 5 3.5 9.5t7.5 7t8 1t6 -8.5q12 -61 14.5 -132.5t2.5 -144.5q35 7 71.5 9.5t71.5 6.5q1 0 12.5 1t25.5 2t26.5 2.5t15.5 1.5h2q-2 59 -3.5 115.5t-2.5 107.5q2 13 13 17t13 -12q1 -51 3 -108.5t4 -117.5h8q9 9 17 2.5t0 -18.5q-5 -8 -24 -13q2 -52 4.5 -101.5 t6.5 -94.5l3 -8q0 -2 -0.5 -2.5t-0.5 -2.5q0 -1 -1 -1q0 -1 0.5 -1.5t0.5 -1.5h-2q-4 -8 -12.5 -10t-11.5 10q-5 47 -8 100t-5 109q-26 -3 -51.5 -3t-35.5 -1q-29 -3 -47 -4t-32.5 -2t-28 -3t-32.5 -6q1 -45 1.5 -88t4.5 -81q-3 -10 -12.5 -14.5t-13.5 9.5q-4 38 -4.5 80.5 t-0.5 87.5l-11 -3q-8 -1 -11 2.5t-2.5 8.5t4 10t8.5 7l12 3q0 72 -2.5 142.5t-14.5 130.5z" />
<glyph unicode="I" horiz-adv-x="171" d="M16 4q-7 1 -9 5.5t-0.5 9.5t6 9t10.5 4q14 0 28 0.5t28 1.5q0 47 -0.5 104t-1 115.5t-1 114.5t-1.5 102q-10 -1 -19.5 -1.5t-19.5 -0.5q-7 1 -9 5t-0.5 8.5t5 8.5t7.5 6q28 1 55.5 4t54.5 4q7 0 10 -4t2 -9t-5 -9.5t-10 -5.5l-45 -3q1 -47 1.5 -104t1 -115.5t1 -115 t0.5 -102.5q7 1 14 1h15q7 0 10 -4t2 -9t-5 -9.5t-10 -5.5q-29 0 -57.5 -2.5t-57.5 -2.5z" />
<glyph unicode="J" horiz-adv-x="325" d="M263 494q2 13 13 17t13 -12q2 -44 7 -97t6.5 -106.5t-4 -105t-24.5 -92.5q-15 -32 -45 -54.5t-66 -30.5t-72.5 1t-64.5 40q-12 12 -16.5 28t-5.5 33.5t1 35t2 32.5q2 13 13 17t13 -12q0 -12 -2 -27t-2 -30.5t3.5 -29.5t12.5 -24q22 -22 52 -31t60 -6t56 19.5t38 45.5 q18 42 22.5 91.5t3 101t-6.5 102t-7 94.5z" />
<glyph unicode="K" horiz-adv-x="381" d="M-4 482q2 13 13 17t13 -12q1 -59 4 -117t7 -117q1 0 2 -1q26 16 57 38.5t61.5 47t57.5 50t46 47.5q11 8 17.5 1t-0.5 -18q-18 -21 -42.5 -44.5t-52.5 -46.5t-57 -44.5t-56 -39.5q2 -2 20 -12.5t45.5 -25t60.5 -32t64 -33l57 -28.5t39 -19q1 0 1.5 -0.5t2.5 -0.5q1 0 3 -2 q8 -9 2 -18.5t-17 -7.5q-13 6 -37.5 18.5t-53.5 28t-61.5 33t-62 33t-54.5 27t-40 16.5q4 -59 7 -117t4 -116v-6l-1 -2l-1 -2q0 -1 -0.5 -1t-0.5 -1q-2 -2 -2 -3q-2 0 -2 -2q-1 0 -2 -1l-1 -1q-1 0 -2 -1q-2 0 -2.5 -0.5t-1.5 -0.5h-1q-2 0 -2 1q-1 0 -2 1l-2 2q-3 3 -3 6 q0 63 -3.5 126.5t-8 126.5t-8 126.5t-4.5 126.5z" />
<glyph unicode="L" horiz-adv-x="293" d="M21 22q-10 1 -10.5 8t4.5 13v1q-1 112 -8 222.5t-8 222.5q1 6 4.5 10.5t8 6t8.5 -1t5 -9.5q1 -5 2.5 -39t3.5 -82.5t3.5 -104.5t3 -103.5t2.5 -80t1 -34.5q58 3 114 12t114 11q7 0 10 -4t2 -9t-5 -9.5t-10 -5.5q-62 -2 -122 -12t-123 -12z" />
<glyph unicode="M" horiz-adv-x="436" d="M75 472q2 13 13 17t13 -12q3 -18 12.5 -45.5t22 -59t26 -63t25 -57t19 -41t8.5 -14.5q30 59 56.5 118t48 106.5t36 76t19.5 26.5q6 -2 9.5 -27t6.5 -65.5t5 -93.5t5 -112t7 -121.5t10 -121.5q-3 -8 -12 -14t-15 5q-11 117 -17 238t-11 239q-1 -1 -11.5 -23.5t-25.5 -56.5 t-32.5 -72.5t-34 -71.5t-29.5 -55t-18 -21q-3 0 -13 17.5t-22.5 44t-26.5 57.5t-25.5 58.5t-19 46.5t-7.5 22q-5 -32 -11.5 -73.5t-14 -84.5t-14.5 -84t-13.5 -73.5t-11 -53t-6.5 -20.5q-5 -7 -14 -9.5t-14 5.5v1q-1 3 -1 8t3 5q1 0 6 22.5t12 60t15.5 85t16 97t14.5 97 t11 85.5v2v5v0z" />
<glyph unicode="N" horiz-adv-x="355" d="M32 501q2 16 15.5 15.5t20.5 -8.5q22 -39 46.5 -85.5t49.5 -93t48 -90t41 -77t29.5 -54t13.5 -21.5q-1 2 -1.5 29.5t-1 67.5t-1 86.5t-1 87t-1 68t-0.5 29.5q1 8 2 13.5t7 10.5q5 4 9.5 4.5t9.5 -4.5q2 -36 3.5 -81.5t2 -93t0 -93.5t-1 -82t-1 -58l-0.5 -22 q0 -9 -6.5 -15.5t-15.5 -0.5q-41 56 -70.5 109t-56 105.5t-53.5 107t-62 113.5q-1 -39 -4 -87.5t-6 -99t-6.5 -99t-6 -87t-4.5 -62.5t-2 -26q-3 -10 -12.5 -14.5t-13.5 9.5q-1 2 0 24t3 57t4.5 78.5t5.5 89t5.5 89.5t5 79t4 57t2.5 25z" />
<glyph unicode="O" d="M209 510q51 -8 85.5 -34t54 -63t25 -81.5t-1 -89.5t-24.5 -87t-45.5 -74t-64.5 -50.5t-81 -15.5q-50 3 -82.5 26.5t-50 60t-21 81.5t4.5 91.5t26.5 90.5t44.5 77t59 52t71 16zM163 39q48 2 86 33t61.5 77t31 100.5t-4.5 103t-45 83.5t-91 44q-42 1 -76.5 -29t-57.5 -76.5 t-32 -101.5t1 -104.5t40.5 -85.5t86.5 -44z" />
<glyph unicode="P" horiz-adv-x="256" d="M19 4q-2 117 -11 232t-11 232q-6 5 -2.5 13.5t11.5 12.5q30 5 63 6t65.5 -2.5t63.5 -12.5t57 -24q27 -15 45 -42t23.5 -58t-3.5 -61t-36 -52q-26 -21 -55 -35t-60.5 -23t-64.5 -14t-66 -9q2 -39 4 -78.5t3 -79.5q-3 -10 -12.5 -14.5t-13.5 9.5zM23 466q2 -69 5.5 -135.5 t8.5 -134.5l3 2q9 3 13 -1q51 5 102 17t93 40q26 18 38.5 42.5t11.5 50.5t-15.5 49.5t-42.5 38.5q-26 14 -52.5 21t-54 9t-55 1.5t-55.5 -0.5z" />
<glyph unicode="Q" horiz-adv-x="384" d="M164 506q56 0 96 -23.5t64.5 -62t34.5 -87t6.5 -97.5t-21.5 -95t-48 -78q17 -23 33.5 -45.5t33.5 -44.5q4 -9 -1.5 -17t-16.5 -6h-1l-4 5q-17 21 -33 43.5t-32 45.5q-19 -14 -40.5 -23.5t-46.5 -11.5q-50 -5 -85.5 13.5t-58 52t-33 78t-10 91.5t12 93t32.5 82.5 t50.5 60.5t67.5 26zM217 118q-5 10 1 19t17 4q22 -24 43 -52q25 30 39 70.5t17 83.5t-6 84.5t-30 74.5t-55 53t-82 20q-41 -5 -71 -40t-45.5 -84t-16 -105.5t16.5 -103.5t52.5 -78t92.5 -30q20 4 36.5 12.5t31.5 21.5q-19 25 -41 50z" />
<glyph unicode="R" horiz-adv-x="326" d="M5 489q1 8 6.5 12.5t10.5 4.5q4 4 7 5q36 3 63.5 6t52.5 0t50.5 -14.5t57.5 -35.5q12 -9 19 -23.5t10 -30.5t2.5 -31t-4.5 -25q-11 -24 -29 -48.5t-40.5 -46.5t-48 -39.5t-50.5 -28.5q52 -18 102.5 -49.5t92.5 -57.5q1 0 2 -0.5t2 -0.5l-1 -1q7 -8 1.5 -17t-16.5 -8 q-2 2 -5 2q-3 1 -4 4q-28 17 -61 36t-65.5 36t-62.5 29t-52 14q-7 1 -9 5.5t-0.5 9.5t6 9t10.5 4q16 0 41.5 10t53.5 27t53.5 39.5t40.5 47.5t15.5 51t-21.5 51q-20 23 -44.5 34.5t-51 15t-54 2.5t-54.5 -4q2 -120 9 -238.5t9 -238.5q-3 -10 -12.5 -14.5t-13.5 9.5 q-2 123 -9 244.5t-9 243.5z" />
<glyph unicode="S" horiz-adv-x="374" d="M321 468q8 -8 2 -17.5t-17 -8.5q-18 7 -43.5 13.5t-53.5 10t-56 2.5t-52.5 -8.5t-42.5 -23.5t-25 -42q-9 -36 -1.5 -58.5t25.5 -36t44.5 -20t55.5 -10.5t57.5 -7.5t52.5 -11.5q58 -19 73.5 -50t3 -64.5t-46 -64.5t-74 -49t-81.5 -18.5t-67 26.5q-9 10 -23.5 27t-22.5 35 t-6 33.5t26 21.5q6 -5 7.5 -11t2 -13t1 -15.5t4.5 -18.5q7 -17 23.5 -30.5t34.5 -18.5q22 -6 48.5 -1.5t52 16t47 28.5t33.5 37q17 29 15 48.5t-17 31.5t-39 19t-51 11.5t-54 7.5t-47 9q-35 10 -58 20t-35 26t-14 40.5t5 63.5q14 49 51.5 71.5t84 27t94.5 -4.5t83 -23z" />
<glyph unicode="T" horiz-adv-x="231" d="M165 36q3 -19 -1.5 -26.5t-11.5 -6.5t-11.5 9.5t-1.5 21.5q0 47 -0.5 104t-1 115.5t-1 114.5t-1.5 102q-5 0 -23 -1.5t-38 -3t-38 -3t-23 -1.5q-7 1 -9 5t-0.5 8.5t5 8.5t7.5 6q9 0 30.5 1.5t49.5 3.5t58.5 4t58 4t49 3.5t30.5 1.5q7 0 10 -4t2 -9t-5 -9.5t-10 -5.5 l-128 -8q1 -47 1.5 -103.5t1 -115t1 -114.5t0.5 -102z" />
<glyph unicode="U" horiz-adv-x="371" d="M11 508q1 6 5.5 10.5t9 5.5t8 -2t3.5 -11q-5 -59 -8.5 -117.5t-1.5 -116.5q2 -23 3 -46t5 -46q6 -39 17 -72t30.5 -53t49.5 -25t75 12q23 10 48 28.5t40 38.5q21 27 29 59t8.5 65.5t-4 67t-10.5 63.5q-2 9 -4 22.5t-5 27.5t-7 28t-10 24q-9 5 -3 18q2 1 2 2q5 5 11 7.5 t11 -5.5q7 -11 12 -25.5t8.5 -30.5t6 -31t4.5 -26q6 -31 11 -68.5t4.5 -75.5t-10.5 -73.5t-35 -62.5q-18 -18 -38.5 -36.5t-43.5 -32.5t-49.5 -22t-54.5 -5q-43 2 -67 30.5t-36.5 69t-16.5 85.5t-7 80q-2 60 1.5 119.5t8.5 119.5z" />
<glyph unicode="V" horiz-adv-x="333" d="M1 446q-2 5 -1 11t4.5 10t8 4.5t9.5 -5.5q42 -109 91 -212.5t99 -208.5q43 107 74 218.5t53 223.5q7 13 20 11.5t15 -17.5q-6 -16 -14 -46.5t-18.5 -70.5t-23 -86t-27.5 -93t-32 -91t-37 -80q-4 -6 -9 -9t-12 2q-30 50 -60 113t-56 124.5t-47.5 115.5t-36.5 86z" />
<glyph unicode="W" horiz-adv-x="500" d="M2 451q-3 5 -1.5 11t5.5 10t9 4.5t8 -5.5q4 -7 16 -40t28 -78t34 -96t34 -95t27 -74t14 -34q3 1 11.5 14.5t19.5 35t23 47t23 51t19.5 47.5t12.5 35q5 11 14.5 12.5t11.5 -12.5q-1 -7 4 -23t13.5 -37.5t20 -45.5t23 -46t22.5 -40t19 -27q1 0 9 30t18.5 75t22.5 98 t22.5 98t17 75l6.5 30q1 1 0.5 1.5t0.5 2.5q4 8 12 12t13 -8v-2h1q0 -1 -0.5 -1t-0.5 -1t0.5 -1t0.5 -1q0 -8 -3 -12q0 -3 -4 -24t-10.5 -53t-15.5 -72t-19 -81.5t-19.5 -81t-18 -69.5t-14.5 -48t-9 -17q-10 0 -17 5q-12 13 -27.5 37.5t-31.5 54t-30 60t-23 56.5 q-1 -1 -8.5 -16.5t-18 -38t-23.5 -48.5t-23.5 -48.5l-17.5 -37.5l-7 -15q-5 -14 -16 -13.5t-19 16.5q-5 5 -19 38.5t-31 80t-35.5 99.5t-34.5 98t-27 75.5t-12 32.5z" />
<glyph unicode="X" horiz-adv-x="396" d="M23 484q-2 6 1.5 11.5t8 8.5t9 1.5t5.5 -8.5q0 -2 10 -18.5t25 -40.5t33 -51t33.5 -50.5t27.5 -40t15 -18.5q7 8 22 28.5t33 45.5t37 52t35 49.5t26 37t10 15.5q11 8 17.5 1t-0.5 -18q1 -3 -9 -19t-26 -39t-36 -50t-39 -52t-35 -45t-23 -28q6 -5 19 -23.5t30.5 -43 t36.5 -52t36 -51.5t29.5 -41t16.5 -20q4 -5 4 -10.5t-3 -9.5t-8 -5.5t-11 2.5q-5 4 -17.5 21t-29.5 41.5t-35.5 52t-35.5 52.5t-30.5 43t-18.5 23l-163 -215l-2 -3l-1 1l-2 -3q-13 -2 -16.5 3t-2.5 12t4.5 13.5l3.5 6.5q5 5 17.5 20.5t29 37t35 45.5t35 45t29 37t17.5 21 q-3 3 -15 21t-28 43t-34.5 53.5t-34 53t-25.5 40.5t-10 17z" />
<glyph unicode="Y" horiz-adv-x="429" d="M-3 446q1 6 6 10.5t10.5 5.5t10.5 -1.5t5 -10.5q7 -136 16.5 -212.5t16.5 -101.5q11 -40 39 -68t62.5 -37t70 4t62.5 56q24 38 37 79t18.5 84t5 87t-3.5 89q-6 6 -1 16q-5 3 -2 13q1 1 1 3q3 8 10.5 12t12.5 -4l6.5 -30.5t13.5 -80.5t10.5 -113t-2.5 -128t-25 -126 t-57 -106q-23 -27 -53.5 -43.5t-63 -21t-65.5 4.5t-61 32q-6 5 -16.5 19t-17 29t-4.5 27.5t20 15.5q5 3 8.5 -5.5t8.5 -21.5t13 -28t22 -27t35 -17.5t53 1.5q61 12 98.5 54t57 100.5t24.5 127t1 134.5q-6 -44 -18 -91.5t-35.5 -87t-59.5 -64.5t-90 -23q-47 2 -76.5 24 t-47.5 58t-26 81.5t-12.5 94.5t-7.5 97.5t-10 89.5z" />
<glyph unicode="Z" horiz-adv-x="389" d="M60 492q-10 8 -5 18t16 10q26 -9 67 -18t84.5 -19t83.5 -20.5t65 -21.5q6 -6 5.5 -10t-8.5 -13q-11 -13 -38 -46t-62 -75t-73.5 -87.5t-71.5 -84t-57 -65t-30 -29.5q14 2 39 6t55 10t62 12.5t62 12t54.5 10.5t38.5 7q4 3 10 3q3 0 6 -0.5t5 -0.5q11 -5 6.5 -12.5 t-9.5 -15.5q-8 -1 -35.5 -6.5t-64.5 -13.5t-78.5 -15.5t-79 -13.5t-65 -7.5t-36.5 3.5q-7 5 -6.5 11t5.5 12q11 13 39.5 46.5t65 76.5t75.5 89.5t72.5 85.5t55.5 64.5t24 27.5q-23 7 -60.5 16t-78 18.5t-78 18t-60.5 16.5z" />
<glyph unicode="[" horiz-adv-x="120" d="M18 -12q-14 2 -10 13q-1 1 -1 3q-2 116 -0.5 232.5t-0.5 231.5q-7 5 -3 14.5t12 12.5h2q2 1 13 4t24 5t24.5 4t16.5 2q7 0 10 -3t2 -7.5t-4 -9t-7 -7.5l-1 -1q-21 -2 -40.5 -5.5t-22.5 -7.5q2 -114 0.5 -227t0.5 -226h31t31 1q4 1 7.5 -1.5t4.5 -10.5v-1q-5 -13 -16 -15 q-18 -2 -35.5 -1.5t-37.5 0.5z" />
<glyph unicode="\" horiz-adv-x="264" d="M36 482q25 -53 50.5 -112t51 -119t51 -119.5t51.5 -113.5q2 -13 -8.5 -14t-18.5 7q-25 54 -50.5 113t-51 119.5t-51 119.5t-50.5 113q-5 14 6.5 15.5t19.5 -9.5z" />
<glyph unicode="]" horiz-adv-x="124" d="M94 -12q-20 0 -37.5 -0.5t-35.5 1.5q-11 2 -16 15v1q1 8 4.5 10.5t7.5 1.5q16 -1 31 -1h31q2 113 0.5 233t0.5 234q-2 2 -8 1.5t-14.5 -1.5t-19.5 -1.5t-21 0.5l-1 1q-4 3 -7 7.5t-4 9t1.5 7.5t10.5 3q4 0 16 0.5t25 0.5t24 -0.5t13 -1.5h2q8 -3 12 -12.5t-3 -14.5 q-2 -115 -0.5 -238.5t-0.5 -239.5q0 -2 -1 -3q4 -11 -10 -13z" />
<glyph unicode="^" horiz-adv-x="220" d="M97 518q12 6 28 -8q13 -15 25.5 -32.5t22 -33.5t16 -27.5t8.5 -14.5q5 -7 4 -12t-5 -7t-9.5 -1t-9.5 7q-3 4 -13.5 18.5t-21.5 31t-21 30.5t-11 17q-1 -2 -9 -11.5t-19 -24.5t-23 -33t-21 -36q-27 -5 -26 15q0 2 8 14.5t20.5 30.5t27.5 38.5t29 38.5z" />
<glyph unicode="_" horiz-adv-x="270" d="M25 -1q-7 1 -9 5.5t-0.5 9.5t6 9t10.5 4h40.5t59.5 -0.5t59 -0.5h40q2 0 4 0.5t4 0.5q15 0 13.5 -11.5t-12.5 -16.5q-14 -2 -44 -2t-63 0.5t-63 1t-45 0.5z" />
<glyph unicode="`" horiz-adv-x="140" d="M3 579q-5 10 1 19t17 4q17 -15 37 -24t40 -20q3 -2 8.5 -4.5t10 -4.5t6.5 -4t-1 -2q13 -2 9.5 -14t-14.5 -14q-6 0 -22.5 8t-35 18.5t-34.5 21.5t-22 16z" />
<glyph unicode="a" horiz-adv-x="264" d="M65 162q-4 -2 -14 -9t-17 -13q-2 -8 -8 -12.5t-14 1.5l-2 2q-5 10 3 21q8 9 19 16.5t20 14.5q48 35 86 28.5t63 -37.5t35 -77.5t1 -91.5q-2 -8 -8.5 -13t-14.5 1q-8 12 -14 25t-13 25t-16.5 22.5t-24.5 16.5q-6 3 -18 5.5t-22 -0.5q-4 -2 -13.5 -7t-19.5 -12t-17.5 -14 t-5.5 -12q12 -7 24 -7.5t23.5 2t23.5 6t24 5.5q7 0 10 -4t2 -9t-5 -9.5t-10 -5.5q-3 0 -16 -4t-33 -8q-37 -7 -52.5 1.5t-15 24.5t14 35t33.5 32.5t44 17t45 -10.5q22 -15 32.5 -30.5t20.5 -32.5q0 34 -10.5 66t-30 52t-47.5 22t-62 -23z" />
<glyph unicode="b" horiz-adv-x="239" d="M-10 502q2 13 13 17t13 -12q1 -45 2.5 -78t4 -64t5.5 -64t6 -78q2 -29 3 -56.5t2 -56.5q6 16 13.5 30t18.5 27q21 25 46 28t46.5 -8t36.5 -32t17.5 -44t-11 -44t-49.5 -32q-16 -5 -32.5 -6t-33.5 -3q-8 -1 -11 2.5t-2.5 8.5t4 10t8.5 7q25 4 49.5 5.5t43.5 20.5 q15 14 11 30.5t-17 29.5t-31 20.5t-32 3.5q-22 -6 -36 -25.5t-22 -44.5t-11.5 -51t-5.5 -45q-12 -12 -18 -12.5t-8 7.5v113t-5 113q-3 44 -6 77.5t-5.5 64t-4 64t-2.5 77.5z" />
<glyph unicode="c" horiz-adv-x="218" d="M106 166q4 -5 4 -10.5t-3 -9.5t-8 -5.5t-11 2.5l-21 19q-15 0 -24 -10.5t-13.5 -24.5t-4 -29.5t5.5 -27.5q9 -21 28 -27t40.5 -3t42.5 12.5t35 21.5q2 8 9 11.5t14 -4.5l1 -2q5 -10 -5 -20q-13 -12 -29 -20t-32 -15q-15 -6 -29.5 -9.5t-31.5 -4.5q-33 -1 -49 15.5 t-20.5 40.5t1 50.5t14.5 45.5q3 6 10.5 13t16.5 12t18.5 6t16.5 -5q7 -5 12.5 -10.5z" />
<glyph unicode="d" horiz-adv-x="245" d="M226 59q-5 -14 -16 -15q-13 0 -17 9.5t-4 22t1.5 26t-0.5 21.5q-3 15 -15.5 25.5t-28 17t-32.5 10t-30 3.5q-23 1 -36 -11.5t-17.5 -31t-1 -39.5t13 -37.5t24.5 -24.5t34 0q14 6 25.5 16.5t23.5 18.5q14 5 15.5 -5t-6.5 -18q-14 -10 -26.5 -22t-28.5 -18q-25 -9 -44.5 -1 t-32.5 26.5t-19.5 43.5t-5 48.5t11 42.5t27.5 25q79 28 140 -16q8 -6 12 -13q0 1 -1.5 22t-3.5 52.5t-5 69.5t-6 73.5t-6 64t-6 42.5q2 13 13 17t13 -12z" />
<glyph unicode="e" horiz-adv-x="231" d="M117 194q17 -16 21.5 -30.5t-0.5 -27.5t-16.5 -23.5t-26.5 -17t-31 -8.5t-29 2q8 -54 48 -63.5t101 39.5q7 5 11.5 4t6.5 -4.5t1 -9t-6 -10.5q-26 -21 -52.5 -34.5t-51 -15t-45.5 12t-36 48.5q-6 15 -7.5 41t4.5 52t19 46.5t36 24.5q16 3 29.5 -7.5t23.5 -18.5zM39 162 q-4 -19 -6 -38q5 -7 16.5 -8t24 2t24 8.5t15.5 11.5q-2 13 -12 27t-22 21t-23.5 3t-16.5 -27z" />
<glyph unicode="f" horiz-adv-x="78" d="M-63 279q-7 1 -9 5t-0.5 8.5t5 8.5t7.5 6q17 1 32.5 1.5t32.5 2.5q0 42 3 79.5t11.5 65.5t24 44t40.5 14q13 2 24.5 -8.5t19.5 -28.5t13 -41t6 -45q-3 -10 -10 -10t-16 5q1 16 -1.5 34.5t-7.5 34t-13.5 24.5t-20.5 6q-14 -1 -23.5 -14t-15.5 -35.5t-8.5 -53.5t-1.5 -68 q17 2 36 2.5t36 1.5q7 0 10 -4t2 -9t-5 -9.5t-10 -5.5q-17 -1 -32.5 -1.5t-32.5 -2.5q3 -71 11.5 -140t13.5 -124q3 -6 -1.5 -13.5t-12.5 -8.5q-8 1 -11 10q-6 60 -15 130.5t-12 142.5q-17 -2 -34.5 -2.5t-34.5 -1.5zM50 28l1 -1v1h-1z" />
<glyph unicode="g" horiz-adv-x="188" d="M155 205q12 -5 8 -15.5t-15 -12.5q-34 13 -57.5 5t-37.5 -25.5t-17.5 -38.5t2.5 -32q10 -18 24.5 -20.5t28.5 2.5t26.5 15t19.5 18l3 3q1 1 1 2q5 8 12.5 9t10.5 -9q2 -5 1.5 -9t-0.5 -9q7 -27 12.5 -56.5t6 -59t-7 -58t-27.5 -53.5q-25 -32 -66.5 -50.5t-85.5 -20 t-84 15.5t-61 56q-2 10 6.5 18.5t16.5 -1.5q16 -30 51 -45t74 -14.5t75.5 15t55.5 42.5q15 22 20.5 46.5t5.5 50t-4.5 51.5t-9.5 51q-28 -29 -53.5 -34.5t-44.5 4t-29.5 30t-9 44.5t17.5 47.5t51 37.5q20 8 44 6.5t36 -6.5z" />
<glyph unicode="h" horiz-adv-x="247" d="M-17 452q2 13 13 17t13 -12q2 -18 2.5 -45t2.5 -71.5t7.5 -110.5t17.5 -163q22 49 53.5 74t60 23t49.5 -31t22 -88v-5q-3 -10 -12 -14t-14 8v6q-1 25 -7.5 49t-19.5 37.5t-33.5 11t-48.5 -30.5q-18 -19 -25.5 -43t-17.5 -47q-4 -7 -11 -10t-12 6q-7 40 -13 87.5 t-10.5 95.5t-8 93.5t-5.5 81t-3 57.5t0 24z" />
<glyph unicode="i" horiz-adv-x="115" d="M34 172q2 13 13 17t13 -12q-1 -41 -5.5 -80.5t-5.5 -80.5q-3 -10 -12.5 -14.5t-13.5 9.5q1 41 5.5 81t5.5 80zM70 290q-7 -1 -10.5 2t-3.5 7.5t2.5 9t7.5 7.5q5 11 14.5 12.5t11.5 -12.5q-2 -9 -7 -16t-15 -10z" />
<glyph unicode="j" horiz-adv-x="87" d="M21 184q0 5 3.5 9.5t7.5 7t8 1t6 -8.5q3 -22 6.5 -54t6 -69t3 -76t-3.5 -75t-12.5 -67t-24.5 -51q-18 -23 -51.5 -30t-68.5 -1t-64 24t-38 46q-2 6 1 11.5t7 8t8.5 1.5t7.5 -8q3 -11 17.5 -23t34.5 -21t43.5 -12.5t45 2t37.5 21.5t22 47q9 46 11.5 84t1.5 75t-5 75 t-10 83zM9 292q-7 1 -9 5.5t-0.5 9.5t6 9t10.5 4h7q7 0 10 -4t2 -9t-5 -9.5t-10 -5.5h-11z" />
<glyph unicode="k" horiz-adv-x="190" d="M154 310q10 13 19 7t1 -20q-20 -29 -45.5 -54t-48.5 -52q-27 -32 -17.5 -52t43.5 -45q11 -8 23 -15t21.5 -13.5t15.5 -12t6 -10.5q0 -8 -10 -9q-20 0 -37 11.5t-34 22.5q-29 18 -42 36q3 -29 5 -46t3 -26.5t1 -15v-12.5q-3 -10 -12.5 -14t-13.5 10q-9 46 -9.5 92.5 t-3.5 92.5q-4 73 -9.5 144.5t-7.5 143.5q2 13 13 17t13 -12q2 -72 7.5 -144t9.5 -144v-5q14 23 36 45.5t44 46.5q1 1 5 5.5t9.5 10t9.5 10.5t5 7z" />
<glyph unicode="l" horiz-adv-x="56" d="M-15 476q2 13 13 17t13 -12q2 -119 11 -236t11 -236q-3 -10 -12.5 -14.5t-13.5 9.5q-2 119 -11 236.5t-11 235.5z" />
<glyph unicode="m" horiz-adv-x="380" d="M13 215q2 13 13 17t13 -12q0 -26 -0.5 -51t-1.5 -51q23 33 39.5 49.5t31 15.5t28.5 -20.5t32 -56.5q8 63 44 82t90 -14q17 -11 27.5 -28t16.5 -36.5t9 -40t5 -38.5q1 -12 -10 -17.5t-15 8.5q-2 18 -5 35.5t-8 33.5t-14 30.5t-24 27.5q-25 22 -52 16.5t-36 -39.5 q-6 -23 -6.5 -39.5t-0.5 -37.5q-3 -8 -11 -14t-14 5l-10.5 31.5t-13 32t-17.5 29.5t-23 23q-11 -4 -20 -14t-16.5 -22.5t-14.5 -25.5t-13 -22q-5 -7 -12 -10t-12 6q-5 12 -5 32t1 41.5t3 41.5t2 32z" />
<glyph unicode="n" horiz-adv-x="230" d="M6 182q2 13 13 17t13 -12l-2 -61q24 34 55.5 46t59 1t45.5 -44.5t14 -89.5v-1h-1q-3 -9 -12 -13t-13 9v12q1 48 -18.5 74.5t-45 29.5t-50.5 -19t-36 -73q0 -2 -1 -2v-6h-3q-5 -6 -12 -7t-10 10v4q2 32 2.5 62.5t1.5 62.5z" />
<glyph unicode="o" horiz-adv-x="189" d="M59 187q8 2 21 1t26.5 -4t25.5 -8t18 -12q22 -29 18.5 -57.5t-22 -48.5t-47.5 -27.5t-58 6.5q-8 4 -15.5 7t-13.5 9q-10 10 -9.5 32.5t8 45t20.5 39.5t28 17zM109 151q-23 13 -41 4t-29 -24q-2 -2 -4.5 -9.5t-5 -16t-2.5 -17t5 -12.5q17 -15 35 -18t33 1.5t25.5 15.5 t13.5 24.5t-4 27t-26 24.5z" />
<glyph unicode="p" horiz-adv-x="234" d="M3 169q2 13 13 17t13 -12q1 -19 4 -37t7 -37q7 45 26 71.5t42.5 33.5t49 -7t45.5 -51q16 -29 12 -59.5t-21.5 -51.5t-45 -28t-57.5 11q-5 10 1 19t17 4q14 -9 25 -11t27 6q18 9 24.5 24.5t4.5 33t-10.5 34.5t-21 30t-27 19.5t-28.5 2.5q-11 -3 -17.5 -14.5t-11 -26 t-7 -28.5t-3.5 -22q-6 -37 -7 -74.5t0 -73.5t2.5 -69.5t1.5 -62.5q-3 -8 -11 -14t-14 5q-2 7 -2.5 40t-2 77t-5 91.5t-10.5 83.5q-4 20 -8 38t-5 38z" />
<glyph unicode="q" horiz-adv-x="234" d="M195 208q7 0 10 -4t2 -9t-5 -9.5t-10 -5.5q-17 -2 -35 -2.5t-36 -3.5q-12 -2 -26.5 -6.5t-27.5 -11t-23.5 -16.5t-15.5 -24q-4 -12 -1 -24t11.5 -20.5t20 -12t23.5 1.5q22 9 36.5 27t28.5 35q1 1 -1 -3l17 26q7 9 14.5 8.5t9.5 -12.5q0 -36 -3.5 -72t-5 -72.5t0 -72 t12.5 -69.5q5 -16 19.5 -25t30.5 -10t30 6.5t19 24.5q5 11 14.5 12.5t11.5 -12.5q-6 -20 -22.5 -35.5t-37 -22.5t-40.5 -3t-32 22q-20 30 -26 69t-5.5 79t4.5 77.5t4 63.5q-15 -19 -33.5 -38.5t-41.5 -29.5q-24 -9 -41.5 -4t-28 19t-13 34t3.5 39.5t20.5 36.5t39.5 25 q31 11 63.5 16t64.5 8z" />
<glyph unicode="r" horiz-adv-x="194" d="M5 195q2 13 13 17t13 -12q1 -23 5 -45.5t9 -45.5q3 16 15 37t29 39.5t37 31t39 12.5q6 -2 8 -9v-2q1 -10 -7 -16t-14 -1q-54 -27 -72.5 -71t-14.5 -101q-2 -8 -10 -14t-15 5q-10 40 -21 81t-14 94z" />
<glyph unicode="s" horiz-adv-x="246" d="M226 179q2 -5 0 -11t-6 -9.5t-8.5 -3t-8.5 6.5q-5 11 -18 16t-30.5 5t-37.5 -3.5t-37.5 -8.5t-30.5 -11t-17 -11q12 -17 34.5 -27.5t47.5 -19t50.5 -16t43.5 -19.5q3 -2 3.5 -4.5t1.5 -6.5q-3 -27 -22 -43t-44.5 -20.5t-51.5 2t-42 24.5q-5 10 1 19t17 4q10 -10 28.5 -16 t37 -6.5t33 5.5t16.5 21q-21 14 -46 21.5l-50 15t-47 19t-37 34.5q-6 10 2 21q2 2 8 11t12 12q14 8 43.5 17.5t61 12.5t58 -3t35.5 -28z" />
<glyph unicode="t" horiz-adv-x="68" d="M-54 237q-7 1 -9 5t-0.5 8.5t5 8.5t7.5 6q15 0 29 1t28 3q-2 29 -2.5 61.5t-1.5 70.5q2 13 13 17t13 -12q1 -38 1.5 -71t2.5 -63q26 5 51.5 10.5t51.5 10.5q7 0 10 -3.5t2 -8t-4 -9t-7 -7.5q-26 -5 -51 -10.5t-51 -9.5q3 -55 5.5 -109.5t4.5 -125.5q-3 -10 -12.5 -14.5 t-13.5 9.5q-2 71 -4.5 126t-5.5 110q-16 -2 -31 -3t-31 -1z" />
<glyph unicode="u" horiz-adv-x="243" d="M6 175q0 5 3.5 9.5t7.5 7t8 1t6 -8.5q2 -16 3 -29t3 -25t6.5 -23.5t12.5 -25.5q13 -21 30 -30t34 -7t30.5 16t19.5 38q5 20 6 38.5t2 37.5q1 9 8.5 15.5t15.5 -2.5q6 -11 10 -37.5t6.5 -54t4 -49.5t1.5 -23q1 -12 -10 -17.5t-15 8.5q-4 18 -4.5 37t-1.5 39 q-5 -11 -9 -22.5t-12 -21.5q-30 -38 -60 -38t-54 23t-38.5 62.5t-13.5 81.5z" />
<glyph unicode="v" horiz-adv-x="218" d="M7 154q-3 5 -2 11t5 9.5t8.5 4.5t9.5 -5q14 -17 23.5 -34t17.5 -34.5t15.5 -35.5t17.5 -37q12 21 22.5 51t19.5 59t17.5 51.5t17.5 27.5q5 4 9.5 4.5t9.5 -4.5q1 -3 -3.5 -17.5t-12 -35.5t-16.5 -46t-18 -48t-16.5 -41t-11.5 -26q-3 -6 -8 -5.5t-10 -4.5q-2 -3 -9 7.5 t-17 27t-20.5 37t-20.5 38.5t-17.5 31t-10.5 15z" />
<glyph unicode="w" horiz-adv-x="303" d="M6 179q-2 6 1 11.5t7 8t8.5 1.5t7.5 -8q11 -38 26 -76.5t41 -68.5h3q6 11 10.5 27.5t10 33.5t12.5 31t19 19q7 3 12 0q13 -12 22.5 -26.5t19 -29.5t20 -29t24.5 -24q5 35 2.5 70t-3.5 70q-4 3 -4 10t4 12q2 2 3 2q8 7 16 3q1 0 2 -1q3 -3 3.5 -5.5t1.5 -6.5 q0 -20 2.5 -42.5t3.5 -45t-1 -44.5t-12 -41q-5 -9 -14 -10q-16 -1 -30 11.5t-27 29.5t-23.5 35.5t-19.5 29.5q-9 -25 -16 -49.5t-21 -47.5q-3 -5 -6 -7.5t-8 -3.5q-5 1 -10 0.5t-10 1.5q-13 5 -25.5 26t-23 46.5t-18 50t-10.5 36.5z" />
<glyph unicode="x" horiz-adv-x="247" d="M10 187q-2 6 1 11.5t7 8t8.5 1.5t7.5 -8q8 -22 27.5 -47t43.5 -49q23 26 45.5 51t46.5 49q11 8 17.5 1t-0.5 -18q-25 -24 -47.5 -49t-45.5 -50q17 -16 32.5 -29.5t27.5 -23.5q4 -5 4 -10.5t-3 -9.5t-8 -5.5t-11 2.5q-14 11 -29.5 25t-32.5 29l-65 -66l-2 -3l-1 1l-2 -3 q-6 -4 -10 -3t-5.5 5t-1 9t3.5 9l7 7l2 2l28.5 28.5t28.5 29.5q-24 25 -44.5 52t-29.5 53z" />
<glyph unicode="y" horiz-adv-x="239" d="M18 196q4 5 8.5 7t8.5 0.5t5.5 -5.5t-0.5 -11q-11 -17 -12 -39.5t7 -42.5t24 -33.5t40 -13.5q23 1 38 13t24 29.5t13 36t5 31.5v7q0 3 1 5q0 1 0.5 1.5t0.5 1.5q2 2 2 3l3 3l6 3q7 2 10 -4q2 -2 2 -5q0 -1 0.5 -1t0.5 -1v-1q0 -35 9.5 -78t17 -88.5t8.5 -92.5t-17 -91 q-7 -17 -31.5 -28t-52 -13.5t-52 4.5t-31.5 25q-2 6 1 11.5t7 8t8.5 1.5t7.5 -8q19 -6 40 -9.5t39.5 0t32 15.5t18.5 36q5 27 4.5 56t-5 58.5t-10.5 58.5t-12 55q-13 -31 -36 -52.5t-57 -18.5q-30 3 -51 20t-31.5 41.5t-9.5 52.5t16 52z" />
<glyph unicode="z" horiz-adv-x="298" d="M17 191q-10 8 -5 18t16 10q52 -17 105 -30.5t103 -36.5q11 -11 -3 -23q-39 -34 -80 -64t-83 -62q44 5 87 14t86 16q4 3 10 3q3 0 6 -0.5t5 -0.5q11 -5 8 -14t-11 -14q-8 -1 -25.5 -4.5t-39 -8t-45.5 -9t-45.5 -7t-39 -2t-26.5 5.5q-7 5 -6.5 11t5.5 12q17 19 37.5 35.5 t42 31.5l43 30t40.5 32q-46 15 -92 28.5t-93 28.5z" />
<glyph unicode="{" horiz-adv-x="223" d="M169 500q7 0 10 -3.5t2 -8t-4 -9t-7 -7.5q-45 8 -67 -1t-30 -28t-6 -45.5t6.5 -53t7 -50t-4.5 -37.5q-5 -10 -14.5 -22t-21.5 -23q11 -2 22.5 -4.5t19.5 -8.5q19 -13 25.5 -32.5t8 -40.5t2 -42t7.5 -35.5t24.5 -20.5t52.5 1q10 6 13 0.5t3 -13.5t-2 -13.5t-3 -0.5 q-44 -7 -68.5 -2.5t-37 17t-16 30t-4 37t-1 38.5t-8 34.5t-24.5 24.5t-50 9q-7 5 -6.5 11t5.5 12q4 4 11.5 9.5t14.5 11.5t13 12.5t8 12.5q7 21 3.5 48t-8 55t-6 54.5t9.5 46t38.5 30.5t81.5 7z" />
<glyph unicode="|" horiz-adv-x="68" d="M6 532q2 13 13 17t13 -12q1 -59 2 -142t1.5 -170.5t1.5 -170.5t2 -142q-3 -10 -12.5 -14.5t-13.5 9.5q-1 40 -1.5 90.5t-1 107t-1 115.5t-1 115.5t-1 107t-1.5 89.5z" />
<glyph unicode="}" horiz-adv-x="227" d="M12 500q53 4 83 -6.5t43.5 -30t15.5 -45.5t0.5 -54t-3 -54.5t5.5 -47.5q2 -6 8 -10.5t13.5 -8.5l15 -8t12.5 -8q5 -6 4.5 -17.5t-7.5 -16.5q-33 0 -49.5 -9.5t-23 -25t-5.5 -35l2 -39t-1 -37.5t-13.5 -30t-36 -17t-67.5 2q-1 -5 -3 0.5t-2 13.5t3 13.5t13 -0.5 q35 -7 51.5 -0.5t22 21.5t4 35.5t-1.5 42.5t5 41.5t24 32.5q8 6 19.5 8.5t22.5 4.5q-12 11 -23 14.5t-16 13.5q-7 14 -6 39t2.5 53t1 55.5t-11.5 48.5t-34.5 31t-68.5 2q-4 3 -7 7.5t-4 9t1.5 8t10.5 3.5z" />
<glyph unicode="~" horiz-adv-x="210" d="M27 125q-4 -6 -9 -7.5t-9 1t-6 7.5t1 12q10 27 22 37.5t24.5 10.5t25.5 -8t23.5 -17t19 -16.5t13.5 -7.5q9 0 14.5 6.5t10.5 14.5l10 16t11 12q14 5 19 -5t-2 -18q-13 -20 -28 -37.5t-29 -17.5q-16 0 -31.5 14t-29.5 24.5t-27 9.5t-23 -31z" />
<glyph unicode="&#xa1;" horiz-adv-x="75" d="M4 28q1 59 3 104.5t4.5 88.5t4.5 89t3 105q4 14 13.5 9.5t12.5 -14.5q-1 -59 -3 -105t-4.5 -88.5t-4.5 -88.5t-3 -105q-2 -16 -13 -12t-13 17zM24 460l-2 2q-8 10 -5.5 21t16.5 10q2 -2 6 -2q5 -3 8 -6.5t5 -10.5q6 -17 -4.5 -21.5t-21.5 6.5q-1 0 -1 0.5t-1 0.5z" />
<glyph unicode="&#xa2;" horiz-adv-x="229" d="M63 387q-2 6 1 11.5t7 8t8.5 1.5t7.5 -8q5 -14 8 -34.5t5 -44.5q29 7 54 -3q6 -2 8 -7.5t1 -10.5t-4 -7.5t-9 1.5q-27 1 -46 -3q3 -31 5.5 -62.5t6.5 -59.5q19 5 36.5 13.5t30.5 19.5q2 8 13.5 10t18.5 -6l1 -2q5 -10 -5 -20q-16 -14 -40.5 -28t-50.5 -19q3 -16 6 -28 t8 -20q7 0 9 -12q0 -3 -1 -4q-2 -8 -8.5 -13t-14.5 1q-8 8 -14 27.5t-11 45.5q-2 0 -3 0.5t-2 0.5q-51 7 -70.5 30.5t-16.5 51t23 54.5t49 41q-2 23 -4.5 42.5t-6.5 32.5zM40 197q8 -17 20.5 -24t28.5 -7q-4 28 -6.5 58t-5.5 59q-17 -8 -26 -19t-13 -23t-3 -24t5 -20z" />
<glyph unicode="&#xa3;" horiz-adv-x="289" d="M5 241q-5 4 -5.5 9.5t2 10t7.5 6.5t11 0t16.5 -2t23.5 2q1 70 35.5 114.5t112.5 52.5q7 0 10 -4t2 -9t-5 -9.5t-10 -5.5q-66 -6 -92.5 -41.5t-27.5 -93.5q4 0 17 0.5t27.5 1.5t27.5 1t18 -1q3 -10 3 -13.5t-12 -8.5q-3 -1 -11.5 -2t-20 -2.5t-24.5 -3t-24 -3.5 q2 -24 7 -41t8 -30.5t1 -26t-14 -29.5q15 3 34.5 -7t41 -19t44 -11t44.5 17q3 6 8 7.5t9.5 -1t7 -8t-0.5 -13.5q-33 -30 -57.5 -34t-44.5 3.5t-37 19.5t-34 15q-14 3 -29 1t-29 -7q-7 -1 -10 2t-3.5 7.5t2 9t6.5 7.5q24 15 31 29t5.5 29t-7.5 32.5t-8 40.5q0 1 -0.5 2 t-0.5 2q-16 -2 -30.5 -1t-24.5 5z" />
<glyph unicode="&#xa4;" horiz-adv-x="278" d="M177 167q-20 -8 -41.5 -11t-38.5 3q1 -1 -4.5 -7.5t-12.5 -15.5t-14.5 -19.5t-11.5 -18.5q-8 -11 -17 -9t-6 17q0 3 7 14.5t15.5 23t15.5 20.5t6 8q-17 17 -20 43t8 50q-20 16 -36 33.5t-22 19.5q-10 8 -4.5 19t16.5 11q5 -5 25.5 -22.5t39.5 -36.5q12 12 26 21t28 12.5 t26.5 0.5t21.5 -14q11 14 23 26.5t24 24.5q9 6 16 3q1 0 1 -1q5 -7 3 -14t-8 -10q-13 -13 -20.5 -21t-17.5 -24q15 -14 24 -35t-5 -50q-6 -11 -19 -23q1 0 9.5 -8t18.5 -18.5t19.5 -20t11.5 -13.5q8 -8 2 -17.5t-17 -8.5q-3 3 -12.5 13t-20.5 21.5t-21.5 21t-14.5 10.5z M201 215q4 14 2 24t-8.5 19t-16.5 17t-21 18q-17 2 -34.5 -4.5t-29.5 -19.5q-2 -6 -7 -10q-8 -11 -8.5 -25t9.5 -28q9 -12 25.5 -17t34 -4t33 8.5t21.5 21.5z" />
<glyph unicode="&#xa5;" horiz-adv-x="253" d="M27 220q-7 1 -9 5.5t-0.5 9.5t6 9t10.5 4h36.5t36.5 1q-2 16 -3 17q0 3 -16 20t-35 37t-35.5 36.5l-17.5 17.5q-3 5 -1 12.5t6.5 13.5t10 8.5t10.5 -3.5q8 -12 19 -28t24 -32.5t26.5 -32t27.5 -26.5q10 18 24 39.5t26.5 41t21 34t7.5 17.5q3 5 8.5 8t11 3t10 -3t5.5 -10 q0 -5 -14 -25t-31.5 -44.5t-34 -49t-21.5 -37.5v-13q8 0 15.5 0.5t15.5 1.5l44 5q3 1 7 2t5 1q10 2 12 -7t-6 -17q2 2 -4.5 -1.5t-12.5 -5.5q-12 -2 -23.5 -3t-24.5 -2l-27 -2v-25q17 2 32.5 3t32.5 1q2 0 9.5 1t8.5 2q8 3 11.5 0.5t4 -7t-2.5 -10.5t-8 -9 q-18 -9 -41.5 -8.5t-45.5 -0.5q2 -29 3.5 -52t3.5 -23v-1q-3 -10 -10.5 -12.5t-15.5 8.5q-3 4 -5 26.5t-4 50.5q-18 -4 -36.5 -9.5t-37.5 -5.5q-9 -5 -14 3t3 18q8 8 19 7q31 9 65 15q0 7 -0.5 13.5t-0.5 13.5q-20 -1 -40.5 -1h-40.5z" />
<glyph unicode="&#xa6;" horiz-adv-x="56" d="M36 195q-1 -90 -2 -158.5t-2 -129.5q-4 -14 -13.5 -9.5t-12.5 14.5q1 61 2 127.5t2 155.5h26zM10 271l3 266q2 16 13 12t13 -17l-3 -261h-26z" />
<glyph unicode="&#xa7;" horiz-adv-x="366" d="M267 250q41 -14 60 -34t21.5 -43t-9.5 -47t-33 -46q39 -22 44 -53t-12 -62t-50.5 -58.5t-72 -42.5t-75.5 -14t-62 26q-9 10 -23.5 27t-22.5 35t-6 33.5t26 21.5q6 -5 7.5 -11t2 -13t1 -15.5t4.5 -18.5q7 -17 23.5 -30.5t34.5 -18.5q22 -6 48.5 -1.5t52 16t47 28.5 t33.5 37q17 29 15 48.5t-17 31.5t-39 19t-51 11.5t-54 7.5t-47 9q-35 10 -58 20t-35 26t-14 40.5t5 63.5q6 20 17 38q-20 16 -24 42t4 74q14 49 51.5 71.5t84 27t94.5 -4.5t83 -23q8 -8 2 -17.5t-17 -8.5q-18 7 -43.5 13.5t-53.5 10t-56 2.5t-52.5 -8.5t-42.5 -23.5t-25 -42 q-9 -36 -1.5 -58.5t25.5 -36t44.5 -20t55.5 -10.5t57.5 -7.5t52.5 -11.5zM110 247q-19 5 -34 10t-27 11q-8 -11 -13 -28q-9 -36 -1.5 -58.5t25.5 -36t44.5 -20t55.5 -10.5t57.5 -7.5t52.5 -11.5l10 -4q13 12 23 28q17 29 15 48.5t-17 31.5t-39 19t-51 11.5t-54 7.5t-47 9z " />
<glyph unicode="&#xa8;" horiz-adv-x="170" d="M8 572q1 0 1 0.5t1 0.5q11 11 21.5 6.5t4.5 -21.5q-2 -7 -5 -10.5t-8 -6.5q-4 0 -6 -2q-7 -1 -11 2t-5 7.5t0 10.5t5 11zM113 572q1 0 1 0.5t1 0.5q11 11 21.5 6.5t4.5 -21.5q-2 -7 -5 -10.5t-8 -6.5q-4 0 -6 -2q-7 -1 -11 2t-5 7.5t0 10.5t5 11z" />
<glyph unicode="&#xb0;" horiz-adv-x="184" d="M58 520q8 2 21 1t26.5 -4t25.5 -8t18 -12q22 -29 18.5 -57.5t-22 -48.5t-47.5 -27.5t-58 6.5q-8 4 -15.5 7t-13.5 9q-10 10 -9.5 32.5t8 45t20.5 39.5t28 17zM108 484q-23 13 -41 4t-29 -24q-2 -2 -4.5 -9.5t-5 -16t-2.5 -17t5 -12.5q17 -15 35 -18t33 1.5t25.5 15.5 t13.5 24.5t-4 27t-26 24.5z" />
<glyph unicode="&#xb4;" horiz-adv-x="146" d="M130 579q-6 -5 -22 -16t-34.5 -21.5t-35 -18.5t-22.5 -8q-11 2 -14.5 14t9.5 14q-3 0 -1 2t6.5 4t10 4.5t8.5 4.5q20 11 40 20t37 24q11 5 17 -4t1 -19z" />
<glyph unicode="&#xb8;" horiz-adv-x="159" d="M91 0q-2 -11 -4.5 -20.5t-4.5 -19.5q16 -3 32 -13q7 -4 16 -12.5t14 -19t3.5 -20t-14.5 -15.5q-28 -10 -56.5 -3.5t-55.5 8.5q-6 1 -10 5.5t-5 9.5t1.5 9t10.5 4q11 -1 25 -4t28 -5.5t27 -2t24 7.5q-7 14 -24.5 19t-30.5 7q-8 1 -12.5 6.5t-2.5 12.5q2 12 6 23.5t6 22.5 h27z" />
<glyph unicode="&#xbf;" horiz-adv-x="265" d="M179 427q0 -1 5 -15.5t9.5 -33t7.5 -36t0 -24.5l-11 -5q-32 15 -62.5 11.5t-53.5 -22t-36.5 -50.5t-10.5 -75q3 -53 20 -87.5t43 -49.5t60 -9t71 36q6 9 17.5 6.5t10.5 -16.5q-56 -51 -105.5 -55t-84.5 25.5t-50.5 84.5t-2.5 121q12 63 52 93t115 18q-2 7 -5 18.5 t-6.5 22.5t-6 21t-2.5 16q3 10 12.5 14.5t13.5 -9.5zM173 487q-1 0 -1 -0.5t-1 -0.5q-11 -11 -21.5 -6.5t-4.5 21.5q2 7 5 10.5t8 6.5q4 0 6 2q7 1 11 -2t5 -7.5t0 -10.5t-5 -11z" />
<glyph unicode="&#xc0;" d="M1 59q15 32 36.5 86t47.5 115.5t56 124.5t60 113q7 5 12 2t9 -9q26 -48 48 -109t40 -123q5 0 10 0.5t10 0.5q7 0 10 -4t2 -9t-5 -9.5t-10 -5.5h-10q10 -35 18.5 -67.5t15.5 -60t12.5 -48t10.5 -32.5q-2 -16 -15 -17.5t-20 11.5q-11 53 -23 105.5t-27 105.5 q-44 -5 -91 -13.5t-107 -11.5q-18 -41 -35.5 -82t-33.5 -83q-5 -6 -9.5 -5.5t-8 4.5t-4.5 10t1 11zM212 460q-27 -57 -54.5 -113.5t-53.5 -113.5q45 3 89 10.5t89 12.5q-15 52 -32.5 103t-37.5 101zM153 579q-5 10 1 19t17 4q17 -15 37 -24t40 -20q3 -2 8.5 -4.5t10 -4.5 t6.5 -4t-1 -2q13 -2 9.5 -14t-14.5 -14q-6 0 -22.5 8t-35 18.5t-34.5 21.5t-22 16z" />
<glyph unicode="&#xc1;" d="M1 59q-2 -5 -1 -11t4.5 -10t8 -4.5t9.5 5.5q16 42 33.5 83t35.5 82q60 3 107 11.5t91 13.5q15 -53 27 -105.5t23 -105.5q7 -13 20 -11.5t15 17.5q-5 12 -10.5 32.5t-12.5 48t-15.5 60t-18.5 67.5h10q6 1 10 5.5t5 9.5t-2 9t-10 4q-5 0 -10 -0.5t-10 -0.5q-18 62 -40 123 t-48 109q-4 6 -9 9t-12 -2q-30 -50 -60 -113t-56 -124.5t-47.5 -115.5t-36.5 -86zM212 460q20 -50 37.5 -101t32.5 -103q-45 -5 -89 -12.5t-89 -10.5q26 57 53.5 113.5t54.5 113.5zM282 579q-6 -5 -22 -16t-34.5 -21.5t-35 -18.5t-22.5 -8q-11 2 -14.5 14t9.5 14q-3 0 -1 2 t6.5 4t10 4.5t8.5 4.5q20 11 40 20t37 24q11 5 17 -4t1 -19z" />
<glyph unicode="&#xc2;" d="M1 59q15 32 36.5 86t47.5 115.5t56 124.5t60 113q7 5 12 2t9 -9q26 -48 48 -109t40 -123q5 0 10 0.5t10 0.5q7 0 10 -4t2 -9t-5 -9.5t-10 -5.5h-10q10 -35 18.5 -67.5t15.5 -60t12.5 -48t10.5 -32.5q-2 -16 -15 -17.5t-20 11.5q-11 53 -23 105.5t-27 105.5 q-44 -5 -91 -13.5t-107 -11.5q-18 -41 -35.5 -82t-33.5 -83q-5 -6 -9.5 -5.5t-8 4.5t-4.5 10t1 11zM212 460q-27 -57 -54.5 -113.5t-53.5 -113.5q45 3 89 10.5t89 12.5q-15 52 -32.5 103t-37.5 101zM204 620q12 6 28 -8q26 -29 40 -54.5t17 -30.5q5 -7 4 -12t-5 -7t-9.5 -1 t-9.5 7q-3 4 -11.5 15.5t-17.5 24.5t-17 24t-9 14q-2 -3 -19 -22t-35 -54q-13 -2 -18.5 0t-4.5 13q-1 5 19 30t48 61z" />
<glyph unicode="&#xc3;" d="M1 59q15 32 36.5 86t47.5 115.5t56 124.5t60 113q7 5 12 2t9 -9q26 -48 48 -109t40 -123q5 0 10 0.5t10 0.5q7 0 10 -4t2 -9t-5 -9.5t-10 -5.5h-10q10 -35 18.5 -67.5t15.5 -60t12.5 -48t10.5 -32.5q-2 -16 -15 -17.5t-20 11.5q-11 53 -23 105.5t-27 105.5 q-44 -5 -91 -13.5t-107 -11.5q-18 -41 -35.5 -82t-33.5 -83q-5 -6 -9.5 -5.5t-8 4.5t-4.5 10t1 11zM212 460q-27 -57 -54.5 -113.5t-53.5 -113.5q45 3 89 10.5t89 12.5q-15 52 -32.5 103t-37.5 101zM145 534q-4 -6 -9 -7.5t-9 1t-6 7.5t1 12q10 27 22 37.5t24.5 10.5 t25.5 -8t23.5 -17t19 -16.5t13.5 -7.5q9 0 14.5 6.5t10.5 14.5l10 16t11 12q14 5 19 -5t-2 -18q-13 -20 -28 -37.5t-29 -17.5q-16 0 -31.5 14t-29.5 24.5t-27 9.5t-23 -31z" />
<glyph unicode="&#xc4;" d="M1 59q15 32 36.5 86t47.5 115.5t56 124.5t60 113q7 5 12 2t9 -9q26 -48 48 -109t40 -123q5 0 10 0.5t10 0.5q7 0 10 -4t2 -9t-5 -9.5t-10 -5.5h-10q10 -35 18.5 -67.5t15.5 -60t12.5 -48t10.5 -32.5q-2 -16 -15 -17.5t-20 11.5q-11 53 -23 105.5t-27 105.5 q-44 -5 -91 -13.5t-107 -11.5q-18 -41 -35.5 -82t-33.5 -83q-5 -6 -9.5 -5.5t-8 4.5t-4.5 10t1 11zM212 460q-27 -57 -54.5 -113.5t-53.5 -113.5q45 3 89 10.5t89 12.5q-15 52 -32.5 103t-37.5 101zM151 572q1 0 1 0.5t1 0.5q11 11 21.5 6.5t4.5 -21.5q-2 -7 -5 -10.5 t-8 -6.5q-4 0 -6 -2q-7 -1 -11 2t-5 7.5t0 10.5t5 11zM256 572q1 0 1 0.5t1 0.5q11 11 21.5 6.5t4.5 -21.5q-2 -7 -5 -10.5t-8 -6.5q-4 0 -6 -2q-7 -1 -11 2t-5 7.5t0 10.5t5 11z" />
<glyph unicode="&#xc5;" d="M1 59q15 32 36.5 86t47.5 115.5t56 124.5t60 113q7 5 12 2t9 -9q26 -48 48 -109t40 -123q5 0 10 0.5t10 0.5q7 0 10 -4t2 -9t-5 -9.5t-10 -5.5h-10q10 -35 18.5 -67.5t15.5 -60t12.5 -48t10.5 -32.5q-2 -16 -15 -17.5t-20 11.5q-11 53 -23 105.5t-27 105.5 q-44 -5 -91 -13.5t-107 -11.5q-18 -41 -35.5 -82t-33.5 -83q-5 -6 -9.5 -5.5t-8 4.5t-4.5 10t1 11zM212 460q-27 -57 -54.5 -113.5t-53.5 -113.5q45 3 89 10.5t89 12.5q-15 52 -32.5 103t-37.5 101zM198 627q11 3 32 -1t29 -14q15 -20 13 -39.5t-15 -33t-32.5 -18.5t-38.5 4 l-10 4t-9 7q-6 7 -6 22t5 30.5t13.5 27t18.5 11.5zM239 595q-13 13 -27.5 10t-21.5 -14q-1 -2 -2 -6.5t-1 -10.5t1 -11.5t4 -8.5q18 -15 30 -13.5t18 11.5t6 23t-7 20z" />
<glyph unicode="&#xc6;" horiz-adv-x="488" d="M220 13q-10 1 -10.5 8t4.5 13v1q-1 54 -3 108t-5 108q-14 -2 -23 -2.5t-19 -1t-23.5 -0.5t-35.5 -1q-9 -20 -20 -47t-22.5 -55.5t-22 -56t-18.5 -48.5q-5 -6 -9.5 -5.5t-8 4.5t-4.5 10t1 11q15 32 36.5 86t47.5 115.5t56 124.5t60 113q3 1 29.5 1t62.5 -0.5t75 -0.5h68 q7 0 10 -4t2 -9t-5 -9.5t-10 -5.5q-52 -1 -105 1.5t-106 0.5q1 -45 3.5 -97t4.5 -97q41 1 79.5 6t78.5 6q7 0 10 -4t2 -9t-5 -9.5t-10 -5.5q-38 -1 -76.5 -6.5t-75.5 -7.5q-1 -3 -1 -18.5t0.5 -38t1.5 -48t2 -47t2 -37t2 -17.5q58 3 114 12t114 11q7 0 10 -4t2 -9t-5 -9.5 t-10 -5.5q-62 -2 -122 -12t-123 -12zM118 275q17 1 27.5 1h19.5h18t22 2q-2 39 -4 78.5t-3 78.5q-12 -24 -27.5 -51t-28.5 -51t-20 -40.5t-4 -17.5z" />
<glyph unicode="&#xc7;" horiz-adv-x="313" d="M251 361q1 -12 -10 -17.5t-15 8.5q-2 20 -3 39t-7 37q-6 16 -21 23t-31 -2q-23 -13 -44.5 -41.5t-38.5 -64.5t-29.5 -77.5t-16.5 -80.5t0.5 -73.5t20.5 -56.5q17 -24 47 -27t61 6.5t57.5 28t37.5 39.5q4 7 7 16t5 17q5 11 14.5 12.5t11.5 -12.5q-16 -59 -63 -96t-105 -39 l-5 -22q16 -3 32 -13q7 -4 16 -12.5t14 -19t3.5 -20t-14.5 -15.5q-28 -10 -56.5 -3.5t-55.5 8.5q-6 1 -10 5.5t-5 9.5t1.5 9t10.5 4q11 -1 25 -4t28 -5.5t27 -2t24 7.5q-7 14 -24.5 19t-30.5 7q-8 1 -12.5 6.5t-2.5 12.5q1 8 3 15t4 13q-8 1 -15 3t-15 4q-38 11 -53.5 49.5 t-14 89.5t16.5 108t37.5 105t49 80.5t51.5 35.5q34 4 51.5 -5.5t26 -26t10.5 -38.5t5 -44z" />
<glyph unicode="&#xc8;" horiz-adv-x="301" d="M21 22q-10 1 -10.5 8t4.5 13v1q-1 112 -8 222.5t-8 222.5q1 6 4.5 10.5t8 6t8.5 -1t5 -9.5q54 1 106.5 6t105.5 6q7 0 10 -4t2 -9t-5 -9.5t-10 -5.5q-52 -1 -104 -5.5t-105 -6.5q1 -90 6 -180q41 1 79.5 6t78.5 6q7 0 10 -4t2 -9t-5 -9.5t-10 -5.5q-38 -1 -76.5 -5.5 t-76.5 -6.5q2 -53 4.5 -104.5t3.5 -103.5q58 3 114 12t114 11q7 0 10 -4t2 -9t-5 -9.5t-10 -5.5q-62 -2 -122 -12t-123 -12zM62 592q-5 10 1 19t17 4q17 -15 37 -24t40 -20q3 -2 8.5 -4.5t10 -4.5t6.5 -4t-1 -2q13 -2 9.5 -14t-14.5 -14q-6 0 -22.5 8t-35 18.5t-34.5 21.5 t-22 16z" />
<glyph unicode="&#xc9;" horiz-adv-x="301" d="M21 22q63 2 123 12t122 12q6 1 10 5.5t5 9.5t-2 9t-10 4q-58 -2 -114 -11t-114 -12q-1 52 -3.5 103.5t-4.5 104.5q38 2 76.5 6.5t76.5 5.5q6 1 10 5.5t5 9.5t-2 9t-10 4q-40 -1 -78.5 -6t-79.5 -6q-5 90 -6 180q53 2 105 6.5t104 5.5q6 1 10 5.5t5 9.5t-2 9t-10 4 q-53 -1 -105.5 -6t-106.5 -6q-1 7 -5 9.5t-8.5 1t-8 -6t-4.5 -10.5q1 -112 8 -222.5t8 -222.5v-1q-5 -6 -4.5 -13t10.5 -8zM199 592q-6 -5 -22 -16t-34.5 -21.5t-35 -18.5t-22.5 -8q-11 2 -14.5 14t9.5 14q-3 0 -1 2t6.5 4t10 4.5t8.5 4.5q20 11 40 20t37 24q11 5 17 -4 t1 -19z" />
<glyph unicode="&#xca;" horiz-adv-x="301" d="M21 22q-10 1 -10.5 8t4.5 13v1q-1 112 -8 222.5t-8 222.5q1 6 4.5 10.5t8 6t8.5 -1t5 -9.5q54 1 106.5 6t105.5 6q7 0 10 -4t2 -9t-5 -9.5t-10 -5.5q-52 -1 -104 -5.5t-105 -6.5q1 -90 6 -180q41 1 79.5 6t78.5 6q7 0 10 -4t2 -9t-5 -9.5t-10 -5.5q-38 -1 -76.5 -5.5 t-76.5 -6.5q2 -53 4.5 -104.5t3.5 -103.5q58 3 114 12t114 11q7 0 10 -4t2 -9t-5 -9.5t-10 -5.5q-62 -2 -122 -12t-123 -12zM114 640q12 6 28 -8q26 -29 40 -54.5t17 -30.5q5 -7 4 -12t-5 -7t-9.5 -1t-9.5 7q-3 4 -11.5 15.5t-17.5 24.5t-17 24t-9 14q-2 -3 -19 -22t-35 -54 q-13 -2 -18.5 0t-4.5 13q-1 5 19 30t48 61z" />
<glyph unicode="&#xcb;" horiz-adv-x="301" d="M21 22q-10 1 -10.5 8t4.5 13v1q-1 112 -8 222.5t-8 222.5q1 6 4.5 10.5t8 6t8.5 -1t5 -9.5q54 1 106.5 6t105.5 6q7 0 10 -4t2 -9t-5 -9.5t-10 -5.5q-52 -1 -104 -5.5t-105 -6.5q1 -90 6 -180q41 1 79.5 6t78.5 6q7 0 10 -4t2 -9t-5 -9.5t-10 -5.5q-38 -1 -76.5 -5.5 t-76.5 -6.5q2 -53 4.5 -104.5t3.5 -103.5q58 3 114 12t114 11q7 0 10 -4t2 -9t-5 -9.5t-10 -5.5q-62 -2 -122 -12t-123 -12zM61 588q1 0 1 0.5t1 0.5q11 11 21.5 6.5t4.5 -21.5q-2 -7 -5 -10.5t-8 -6.5q-4 0 -6 -2q-7 -1 -11 2t-5 7.5t0 10.5t5 11zM166 588q1 0 1 0.5t1 0.5 q11 11 21.5 6.5t4.5 -21.5q-2 -7 -5 -10.5t-8 -6.5q-4 0 -6 -2q-7 -1 -11 2t-5 7.5t0 10.5t5 11z" />
<glyph unicode="&#xcc;" horiz-adv-x="171" d="M16 4q-7 1 -9 5.5t-0.5 9.5t6 9t10.5 4q14 0 28 0.5t28 1.5q0 47 -0.5 104t-1 115.5t-1 114.5t-1.5 102q-10 -1 -19.5 -1.5t-19.5 -0.5q-7 1 -9 5t-0.5 8.5t5 8.5t7.5 6q28 1 55.5 4t54.5 4q7 0 10 -4t2 -9t-5 -9.5t-10 -5.5l-45 -3q1 -47 1.5 -104t1 -115.5t1 -115 t0.5 -102.5q7 1 14 1h15q7 0 10 -4t2 -9t-5 -9.5t-10 -5.5q-29 0 -57.5 -2.5t-57.5 -2.5zM26 592q-5 10 1 19t17 4q17 -15 37 -24t40 -20q3 -2 8.5 -4.5t10 -4.5t6.5 -4t-1 -2q13 -2 9.5 -14t-14.5 -14q-6 0 -22.5 8t-35 18.5t-34.5 21.5t-22 16z" />
<glyph unicode="&#xcd;" horiz-adv-x="171" d="M16 4q29 0 57.5 2.5t57.5 2.5q6 1 10 5.5t5 9.5t-2 9t-10 4h-15t-14 -1q0 46 -0.5 102.5t-1 115t-1 115.5t-1.5 104l45 3q6 1 10 5.5t5 9.5t-2 9t-10 4q-27 -1 -54.5 -4t-55.5 -4q-4 -2 -7.5 -6t-5 -8.5t0.5 -8.5t9 -5q10 0 19.5 0.5t19.5 1.5q1 -46 1.5 -102t1 -114.5 t1 -115.5t0.5 -104q-14 -1 -28 -1.5t-28 -0.5q-6 0 -10.5 -4t-6 -9t0.5 -9.5t9 -5.5zM156 592q-6 -5 -22 -16t-34.5 -21.5t-35 -18.5t-22.5 -8q-11 2 -14.5 14t9.5 14q-3 0 -1 2t6.5 4t10 4.5t8.5 4.5q20 11 40 20t37 24q11 5 17 -4t1 -19z" />
<glyph unicode="&#xce;" horiz-adv-x="171" d="M16 4q-7 1 -9 5.5t-0.5 9.5t6 9t10.5 4q14 0 28 0.5t28 1.5q0 47 -0.5 104t-1 115.5t-1 114.5t-1.5 102q-10 -1 -19.5 -1.5t-19.5 -0.5q-7 1 -9 5t-0.5 8.5t5 8.5t7.5 6q28 1 55.5 4t54.5 4q7 0 10 -4t2 -9t-5 -9.5t-10 -5.5l-45 -3q1 -47 1.5 -104t1 -115.5t1 -115 t0.5 -102.5q7 1 14 1h15q7 0 10 -4t2 -9t-5 -9.5t-10 -5.5q-29 0 -57.5 -2.5t-57.5 -2.5zM78 640q12 6 28 -8q26 -29 40 -54.5t17 -30.5q5 -7 4 -12t-5 -7t-9.5 -1t-9.5 7q-3 4 -11.5 15.5t-17.5 24.5t-17 24t-9 14q-2 -3 -19 -22t-35 -54q-13 -2 -18.5 0t-4.5 13 q-1 5 19 30t48 61z" />
<glyph unicode="&#xcf;" horiz-adv-x="171" d="M16 4q-7 1 -9 5.5t-0.5 9.5t6 9t10.5 4q14 0 28 0.5t28 1.5q0 47 -0.5 104t-1 115.5t-1 114.5t-1.5 102q-10 -1 -19.5 -1.5t-19.5 -0.5q-7 1 -9 5t-0.5 8.5t5 8.5t7.5 6q28 1 55.5 4t54.5 4q7 0 10 -4t2 -9t-5 -9.5t-10 -5.5l-45 -3q1 -47 1.5 -104t1 -115.5t1 -115 t0.5 -102.5q7 1 14 1h15q7 0 10 -4t2 -9t-5 -9.5t-10 -5.5q-29 0 -57.5 -2.5t-57.5 -2.5zM37 588q1 0 1 0.5t1 0.5q11 11 21.5 6.5t4.5 -21.5q-2 -7 -5 -10.5t-8 -6.5q-4 0 -6 -2q-7 -1 -11 2t-5 7.5t0 10.5t5 11zM121 588q1 0 1 0.5t1 0.5q11 11 21.5 6.5t4.5 -21.5 q-2 -7 -5 -10.5t-8 -6.5q-4 0 -6 -2q-7 -1 -11 2t-5 7.5t0 10.5t5 11z" />
<glyph unicode="&#xd0;" horiz-adv-x="342" d="M12 249q-7 1 -9 5.5t-0.5 9.5t6 9t10.5 4h21q-2 51 -4.5 102.5t-6.5 102.5q-1 7 4 12.5t13 5.5q57 19 106 2.5t86 -54.5t60 -91t28.5 -107t-7.5 -102.5t-49 -76.5q-35 -28 -59 -41t-48 -18.5t-54 -8t-77 -9.5q-8 -1 -11 2.5t-2.5 8.5t4 10t8.5 7q34 5 64.5 7t58 7.5 t53 18t50.5 37.5q31 31 40.5 76.5t1.5 94t-30.5 94.5t-55.5 77.5t-73.5 42.5t-83.5 -9q3 -48 5.5 -95.5t4.5 -95.5h77q2 0 4 0.5t4 0.5q15 0 15 -10t-14 -18q-17 -2 -39.5 -2.5t-45.5 -0.5q2 -49 4.5 -97.5t5.5 -96.5q-3 -10 -12.5 -14.5t-13.5 9.5q-3 51 -5.5 100.5 t-4.5 100.5h-29v0z" />
<glyph unicode="&#xd1;" horiz-adv-x="355" d="M32 501q2 16 15.5 15.5t20.5 -8.5q22 -39 46.5 -85.5t49.5 -93t48 -90t41 -77t29.5 -54t13.5 -21.5q-1 2 -1.5 29.5t-1 67.5t-1 86.5t-1 87t-1 68t-0.5 29.5q1 8 2 13.5t7 10.5q5 4 9.5 4.5t9.5 -4.5q2 -36 3.5 -81.5t2 -93t0 -93.5t-1 -82t-1 -58l-0.5 -22 q0 -9 -6.5 -15.5t-15.5 -0.5q-41 56 -70.5 109t-56 105.5t-53.5 107t-62 113.5q-1 -39 -4 -87.5t-6 -99t-6.5 -99t-6 -87t-4.5 -62.5t-2 -26q-3 -10 -12.5 -14.5t-13.5 9.5q-1 2 0 24t3 57t4.5 78.5t5.5 89t5.5 89.5t5 79t4 57t2.5 25zM111 534q-4 -6 -9 -7.5t-9 1t-6 7.5 t1 12q10 27 22 37.5t24.5 10.5t25.5 -8t23.5 -17t19 -16.5t13.5 -7.5q9 0 14.5 6.5t10.5 14.5l10 16t11 12q14 5 19 -5t-2 -18q-13 -20 -28 -37.5t-29 -17.5q-16 0 -31.5 14t-29.5 24.5t-27 9.5t-23 -31z" />
<glyph unicode="&#xd2;" d="M209 510q51 -8 85.5 -34t54 -63t25 -81.5t-1 -89.5t-24.5 -87t-45.5 -74t-64.5 -50.5t-81 -15.5q-50 3 -82.5 26.5t-50 60t-21 81.5t4.5 91.5t26.5 90.5t44.5 77t59 52t71 16zM163 39q48 2 86 33t61.5 77t31 100.5t-4.5 103t-45 83.5t-91 44q-42 1 -76.5 -29t-57.5 -76.5 t-32 -101.5t1 -104.5t40.5 -85.5t86.5 -44zM147 592q-5 10 1 19t17 4q17 -15 37 -24t40 -20q3 -2 8.5 -4.5t10 -4.5t6.5 -4t-1 -2q13 -2 9.5 -14t-14.5 -14q-6 0 -22.5 8t-35 18.5t-34.5 21.5t-22 16z" />
<glyph unicode="&#xd3;" d="M209 510q-38 3 -71 -16t-59 -52t-44.5 -77t-26.5 -90.5t-4.5 -91.5t21 -81.5t50 -60t82.5 -26.5q44 -3 81 15.5t64.5 50.5t45.5 74t24.5 87t1 89.5t-25 81.5t-54 63t-85.5 34zM163 39q-56 8 -86.5 44t-40.5 85.5t-1 104.5t32 101.5t57.5 76.5t76.5 29q58 -9 91 -44 t45 -83.5t4.5 -103t-31 -100.5t-61.5 -77t-86 -33zM276 592q-6 -5 -22 -16t-34.5 -21.5t-35 -18.5t-22.5 -8q-11 2 -14.5 14t9.5 14q-3 0 -1 2t6.5 4t10 4.5t8.5 4.5q20 11 40 20t37 24q11 5 17 -4t1 -19z" />
<glyph unicode="&#xd4;" d="M209 510q51 -8 85.5 -34t54 -63t25 -81.5t-1 -89.5t-24.5 -87t-45.5 -74t-64.5 -50.5t-81 -15.5q-50 3 -82.5 26.5t-50 60t-21 81.5t4.5 91.5t26.5 90.5t44.5 77t59 52t71 16zM163 39q48 2 86 33t61.5 77t31 100.5t-4.5 103t-45 83.5t-91 44q-42 1 -76.5 -29t-57.5 -76.5 t-32 -101.5t1 -104.5t40.5 -85.5t86.5 -44zM198 640q12 6 28 -8q26 -29 40 -54.5t17 -30.5q5 -7 4 -12t-5 -7t-9.5 -1t-9.5 7q-3 4 -11.5 15.5t-17.5 24.5t-17 24t-9 14q-2 -3 -19 -22t-35 -54q-13 -2 -18.5 0t-4.5 13q-1 5 19 30t48 61z" />
<glyph unicode="&#xd5;" d="M209 510q51 -8 85.5 -34t54 -63t25 -81.5t-1 -89.5t-24.5 -87t-45.5 -74t-64.5 -50.5t-81 -15.5q-50 3 -82.5 26.5t-50 60t-21 81.5t4.5 91.5t26.5 90.5t44.5 77t59 52t71 16zM163 39q48 2 86 33t61.5 77t31 100.5t-4.5 103t-45 83.5t-91 44q-42 1 -76.5 -29t-57.5 -76.5 t-32 -101.5t1 -104.5t40.5 -85.5t86.5 -44zM144 547q-4 -6 -9 -7.5t-9 1t-6 7.5t1 12q10 27 22 37.5t24.5 10.5t25.5 -8t23.5 -17t19 -16.5t13.5 -7.5q9 0 14.5 6.5t10.5 14.5l10 16t11 12q14 5 19 -5t-2 -18q-13 -20 -28 -37.5t-29 -17.5q-16 0 -31.5 14t-29.5 24.5 t-27 9.5t-23 -31z" />
<glyph unicode="&#xd6;" d="M209 510q51 -8 85.5 -34t54 -63t25 -81.5t-1 -89.5t-24.5 -87t-45.5 -74t-64.5 -50.5t-81 -15.5q-50 3 -82.5 26.5t-50 60t-21 81.5t4.5 91.5t26.5 90.5t44.5 77t59 52t71 16zM163 39q48 2 86 33t61.5 77t31 100.5t-4.5 103t-45 83.5t-91 44q-42 1 -76.5 -29t-57.5 -76.5 t-32 -101.5t1 -104.5t40.5 -85.5t86.5 -44zM136 588q1 0 1 0.5t1 0.5q11 11 21.5 6.5t4.5 -21.5q-2 -7 -5 -10.5t-8 -6.5q-4 0 -6 -2q-7 -1 -11 2t-5 7.5t0 10.5t5 11zM241 588q1 0 1 0.5t1 0.5q11 11 21.5 6.5t4.5 -21.5q-2 -7 -5 -10.5t-8 -6.5q-4 0 -6 -2q-7 -1 -11 2 t-5 7.5t0 10.5t5 11z" />
<glyph unicode="&#xd7;" horiz-adv-x="172" d="M6 249q-3 12 7.5 18.5t16.5 -0.5q1 -2 8 -9.5t15 -16.5t15.5 -18t9.5 -14q11 13 16.5 19t10 10.5t10 10.5t17.5 18q11 8 17.5 1t-0.5 -18l-18 -18l-10.5 -10.5t-10 -10.5l-16.5 -18q17 -16 32 -33.5t27 -27.5q0 -2 0.5 -6.5t0 -8.5t-4.5 -7t-14 -1q-14 11 -29 29t-32 33 l-42 -46l-2 -3l-1 1l-2 -3q-6 -4 -10 -3t-5.5 5t-1 9t3.5 9l7 7l2 2q7 7 10.5 11t6.5 7.5t6.5 7.5l10.5 12q-1 5 -8 14.5t-16 19.5t-17 18z" />
<glyph unicode="&#xd8;" d="M289 556q8 11 19.5 9.5t6.5 -15.5l-31 -67q44 -27 66 -73.5t25.5 -99.5t-11 -107t-43 -97t-70.5 -68.5t-94 -22.5q-20 1 -37.5 5.5t-31.5 12.5l-25 -56q-8 -8 -18.5 -7t-8.5 14q7 14 14 30t15 34q-35 28 -49.5 74.5t-13 99t18 105.5t44 95t64.5 66.5t80 21.5 q28 -4 52 -15q8 17 14.5 32t13.5 29zM163 39q42 2 76.5 26.5t58.5 62.5t36 84.5t10 92t-20 85t-53 63.5q-20 -45 -41.5 -95t-43.5 -101.5t-44 -101.5t-41 -94q27 -18 62 -22zM201 480q-35 1 -65.5 -20.5t-53 -57t-36 -79.5t-15.5 -89t9.5 -86t38.5 -69q20 44 41.5 94 t43.5 100.5t43 99.5t41 93q-11 5 -22.5 8.5t-24.5 5.5z" />
<glyph unicode="&#xd9;" horiz-adv-x="371" d="M11 508q1 6 5.5 10.5t9 5.5t8 -2t3.5 -11q-5 -59 -8.5 -117.5t-1.5 -116.5q2 -23 3 -46t5 -46q6 -39 17 -72t30.5 -53t49.5 -25t75 12q23 10 48 28.5t40 38.5q21 27 29 59t8.5 65.5t-4 67t-10.5 63.5q-2 9 -4 22.5t-5 27.5t-7 28t-10 24q-9 5 -3 18q2 1 2 2q5 5 11 7.5 t11 -5.5q7 -11 12 -25.5t8.5 -30.5t6 -31t4.5 -26q6 -31 11 -68.5t4.5 -75.5t-10.5 -73.5t-35 -62.5q-18 -18 -38.5 -36.5t-43.5 -32.5t-49.5 -22t-54.5 -5q-43 2 -67 30.5t-36.5 69t-16.5 85.5t-7 80q-2 60 1.5 119.5t8.5 119.5zM94 592q-5 10 1 19t17 4q17 -15 37 -24 t40 -20q3 -2 8.5 -4.5t10 -4.5t6.5 -4t-1 -2q13 -2 9.5 -14t-14.5 -14q-6 0 -22.5 8t-35 18.5t-34.5 21.5t-22 16z" />
<glyph unicode="&#xda;" horiz-adv-x="371" d="M11 508q-5 -60 -8.5 -119.5t-1.5 -119.5q3 -35 7 -80t16.5 -85.5t36.5 -69t67 -30.5q28 -3 54.5 5t49.5 22t43.5 32.5t38.5 36.5q25 27 35 62.5t10.5 73.5t-4.5 75.5t-11 68.5q-2 11 -4.5 26t-6 31t-8.5 30.5t-12 25.5q-5 8 -11 5.5t-11 -7.5q0 -1 -2 -2q-6 -13 3 -18 q6 -10 10 -24t7 -28t5 -27.5t4 -22.5q6 -30 10.5 -63.5t4 -67t-8.5 -65.5t-29 -59q-15 -20 -40 -38.5t-48 -28.5q-45 -17 -75 -12t-49.5 25t-30.5 53t-17 72q-4 23 -5 46t-3 46q-2 58 1.5 116.5t8.5 117.5q0 8 -3.5 11t-8 2t-9 -5.5t-5.5 -10.5zM232 592q-6 -5 -22 -16 t-34.5 -21.5t-35 -18.5t-22.5 -8q-11 2 -14.5 14t9.5 14q-3 0 -1 2t6.5 4t10 4.5t8.5 4.5q20 11 40 20t37 24q11 5 17 -4t1 -19z" />
<glyph unicode="&#xdb;" horiz-adv-x="371" d="M11 508q1 6 5.5 10.5t9 5.5t8 -2t3.5 -11q-5 -59 -8.5 -117.5t-1.5 -116.5q2 -23 3 -46t5 -46q6 -39 17 -72t30.5 -53t49.5 -25t75 12q23 10 48 28.5t40 38.5q21 27 29 59t8.5 65.5t-4 67t-10.5 63.5q-2 9 -4 22.5t-5 27.5t-7 28t-10 24q-9 5 -3 18q2 1 2 2q5 5 11 7.5 t11 -5.5q7 -11 12 -25.5t8.5 -30.5t6 -31t4.5 -26q6 -31 11 -68.5t4.5 -75.5t-10.5 -73.5t-35 -62.5q-18 -18 -38.5 -36.5t-43.5 -32.5t-49.5 -22t-54.5 -5q-43 2 -67 30.5t-36.5 69t-16.5 85.5t-7 80q-2 60 1.5 119.5t8.5 119.5zM151 640q12 6 28 -8q26 -29 40 -54.5 t17 -30.5q5 -7 4 -12t-5 -7t-9.5 -1t-9.5 7q-3 4 -11.5 15.5t-17.5 24.5t-17 24t-9 14q-2 -3 -19 -22t-35 -54q-13 -2 -18.5 0t-4.5 13q-1 5 19 30t48 61z" />
<glyph unicode="&#xdc;" horiz-adv-x="371" d="M11 508q1 6 5.5 10.5t9 5.5t8 -2t3.5 -11q-5 -59 -8.5 -117.5t-1.5 -116.5q2 -23 3 -46t5 -46q6 -39 17 -72t30.5 -53t49.5 -25t75 12q23 10 48 28.5t40 38.5q21 27 29 59t8.5 65.5t-4 67t-10.5 63.5q-2 9 -4 22.5t-5 27.5t-7 28t-10 24q-9 5 -3 18q2 1 2 2q5 5 11 7.5 t11 -5.5q7 -11 12 -25.5t8.5 -30.5t6 -31t4.5 -26q6 -31 11 -68.5t4.5 -75.5t-10.5 -73.5t-35 -62.5q-18 -18 -38.5 -36.5t-43.5 -32.5t-49.5 -22t-54.5 -5q-43 2 -67 30.5t-36.5 69t-16.5 85.5t-7 80q-2 60 1.5 119.5t8.5 119.5zM96 588q1 0 1 0.5t1 0.5q11 11 21.5 6.5 t4.5 -21.5q-2 -7 -5 -10.5t-8 -6.5q-4 0 -6 -2q-7 -1 -11 2t-5 7.5t0 10.5t5 11zM201 588q1 0 1 0.5t1 0.5q11 11 21.5 6.5t4.5 -21.5q-2 -7 -5 -10.5t-8 -6.5q-4 0 -6 -2q-7 -1 -11 2t-5 7.5t0 10.5t5 11z" />
<glyph unicode="&#xdd;" horiz-adv-x="429" d="M-3 446q7 -41 10 -89.5t7.5 -97.5t12.5 -94.5t26 -81.5t47.5 -58t76.5 -24q54 -2 90 23t59.5 64.5t35.5 87t18 91.5q4 -66 -1 -134.5t-24.5 -127t-57 -100.5t-98.5 -54q-32 -7 -53 -1.5t-35 17.5t-22 27t-13 28t-8.5 21.5t-8.5 5.5q-18 -3 -20 -15.5t4.5 -27.5t17 -29 t16.5 -19q28 -23 61 -32t65.5 -4.5t63 21t53.5 43.5q38 45 57 106t25 126t2.5 128t-10.5 113t-13.5 80.5l-6.5 30.5q-5 8 -12.5 4t-10.5 -12q0 -2 -1 -3q-3 -10 2 -13q-5 -10 1 -16q3 -45 3.5 -89t-5 -87t-18.5 -84t-37 -79q-27 -43 -62.5 -56t-70 -4t-62.5 37t-39 68 q-7 25 -16.5 101.5t-16.5 212.5q0 8 -5 10.5t-10.5 1.5t-10.5 -5.5t-6 -10.5zM273 579q-6 -5 -22 -16t-34.5 -21.5t-35 -18.5t-22.5 -8q-11 2 -14.5 14t9.5 14q-3 0 -1 2t6.5 4t10 4.5t8.5 4.5q20 11 40 20t37 24q11 5 17 -4t1 -19z" />
<glyph unicode="&#xde;" horiz-adv-x="206" d="M6 532q2 13 13 17t13 -12q1 -39 1.5 -78t0.5 -83q19 0 38.5 0.5t38.5 -2t36.5 -8.5t32.5 -19q6 -5 10 -12.5t5 -15.5q1 -27 -15 -50t-40.5 -39t-53 -23.5t-51.5 -2.5l3 -189q-3 -10 -12.5 -14.5t-13.5 9.5q-1 59 -1.5 126t-1.5 135.5t-1.5 135t-1.5 125.5zM34 343v-21 v-35.5t0.5 -33t1.5 -14.5q13 -3 32.5 -1.5t39 8.5t35.5 19.5t22 32.5q3 21 -11 30.5t-36 12.5t-45.5 2.5t-38.5 -0.5z" />
<glyph unicode="&#xdf;" horiz-adv-x="367" d="M41 -52q-2 -10 -11 -15.5t-14 8.5q-5 75 -7.5 148.5t-3.5 147.5q0 27 -1 55.5t0.5 56.5t6.5 55.5t17 52.5q14 30 45 46.5t65 17t63.5 -15t41.5 -49.5q11 -33 6.5 -62t-18.5 -54.5t-35 -49t-42 -45.5q69 8 109 -3.5t58 -34.5t17.5 -53t-13.5 -59.5t-34.5 -54.5t-46.5 -37 t-49 -8t-41 33q-2 4 -0.5 9.5t5 9.5t8 4.5t9.5 -4.5q3 -20 15 -25t27 0t32 18t30.5 31t22 38.5t7.5 40.5q-1 12 -7.5 23t-16 19.5t-21.5 14t-24 7.5q-28 5 -57 3.5t-58 -0.5q-16 0 -5 28q14 18 31.5 34.5t33 34.5t27 39t14.5 47q3 36 -18.5 58.5t-51.5 29.5t-61 -2.5 t-47 -39.5q-17 -31 -18 -68t-2 -72q0 -178 12 -358z" />
<glyph unicode="&#xe0;" horiz-adv-x="264" d="M65 162q-4 -2 -14 -9t-17 -13q-2 -8 -8 -12.5t-14 1.5l-2 2q-5 10 3 21q8 9 19 16.5t20 14.5q48 35 86 28.5t63 -37.5t35 -77.5t1 -91.5q-2 -8 -8.5 -13t-14.5 1q-8 12 -14 25t-13 25t-16.5 22.5t-24.5 16.5q-6 3 -18 5.5t-22 -0.5q-4 -2 -13.5 -7t-19.5 -12t-17.5 -14 t-5.5 -12q12 -7 24 -7.5t23.5 2t23.5 6t24 5.5q7 0 10 -4t2 -9t-5 -9.5t-10 -5.5q-3 0 -16 -4t-33 -8q-37 -7 -52.5 1.5t-15 24.5t14 35t33.5 32.5t44 17t45 -10.5q22 -15 32.5 -30.5t20.5 -32.5q0 34 -10.5 66t-30 52t-47.5 22t-62 -23zM64 326q-5 10 1 19t17 4 q17 -15 37 -24t40 -20q3 -2 8.5 -4.5t10 -4.5t6.5 -4t-1 -2q13 -2 9.5 -14t-14.5 -14q-6 0 -22.5 8t-35 18.5t-34.5 21.5t-22 16z" />
<glyph unicode="&#xe1;" horiz-adv-x="264" d="M65 162q34 25 62 23t47.5 -22t30 -52t10.5 -66q-10 17 -20.5 32.5t-32.5 30.5q-21 14 -45 10.5t-44 -17t-33.5 -32.5t-14 -35t15 -24.5t52.5 -1.5q20 4 33 8t16 4q6 1 10 5.5t5 9.5t-2 9t-10 4q-12 -2 -24 -5.5t-23.5 -6t-23.5 -2t-24 7.5q-2 5 5.5 12t17.5 14t19.5 12 t13.5 7q10 3 22 0.5t18 -5.5q15 -6 24.5 -16.5t16.5 -22.5t13 -25t14 -25q8 -6 14.5 -1t8.5 13q9 45 -1 91.5t-35 77.5t-63 37.5t-86 -28.5q-9 -7 -20 -14.5t-19 -16.5q-8 -11 -3 -21l2 -2q8 -6 14 -1.5t8 12.5q7 6 17 13t14 9zM193 326q-6 -5 -22 -16t-34.5 -21.5 t-35 -18.5t-22.5 -8q-11 2 -14.5 14t9.5 14q-3 0 -1 2t6.5 4t10 4.5t8.5 4.5q20 11 40 20t37 24q11 5 17 -4t1 -19z" />
<glyph unicode="&#xe2;" horiz-adv-x="264" d="M65 162q-4 -2 -14 -9t-17 -13q-2 -8 -8 -12.5t-14 1.5l-2 2q-5 10 3 21q8 9 19 16.5t20 14.5q48 35 86 28.5t63 -37.5t35 -77.5t1 -91.5q-2 -8 -8.5 -13t-14.5 1q-8 12 -14 25t-13 25t-16.5 22.5t-24.5 16.5q-6 3 -18 5.5t-22 -0.5q-4 -2 -13.5 -7t-19.5 -12t-17.5 -14 t-5.5 -12q12 -7 24 -7.5t23.5 2t23.5 6t24 5.5q7 0 10 -4t2 -9t-5 -9.5t-10 -5.5q-3 0 -16 -4t-33 -8q-37 -7 -52.5 1.5t-15 24.5t14 35t33.5 32.5t44 17t45 -10.5q22 -15 32.5 -30.5t20.5 -32.5q0 34 -10.5 66t-30 52t-47.5 22t-62 -23zM115 352q12 6 28 -8 q26 -29 40 -54.5t17 -30.5q5 -7 4 -12t-5 -7t-9.5 -1t-9.5 7q-3 4 -11.5 15.5t-17.5 24.5t-17 24t-9 14q-2 -3 -19 -22t-35 -54q-13 -2 -18.5 0t-4.5 13q-1 5 19 30t48 61z" />
<glyph unicode="&#xe3;" horiz-adv-x="264" d="M65 162q-4 -2 -14 -9t-17 -13q-2 -8 -8 -12.5t-14 1.5l-2 2q-5 10 3 21q8 9 19 16.5t20 14.5q48 35 86 28.5t63 -37.5t35 -77.5t1 -91.5q-2 -8 -8.5 -13t-14.5 1q-8 12 -14 25t-13 25t-16.5 22.5t-24.5 16.5q-6 3 -18 5.5t-22 -0.5q-4 -2 -13.5 -7t-19.5 -12t-17.5 -14 t-5.5 -12q12 -7 24 -7.5t23.5 2t23.5 6t24 5.5q7 0 10 -4t2 -9t-5 -9.5t-10 -5.5q-3 0 -16 -4t-33 -8q-37 -7 -52.5 1.5t-15 24.5t14 35t33.5 32.5t44 17t45 -10.5q22 -15 32.5 -30.5t20.5 -32.5q0 34 -10.5 66t-30 52t-47.5 22t-62 -23zM58 267q-4 -6 -9 -7.5t-9 1t-6 7.5 t1 12q10 27 22 37.5t24.5 10.5t25.5 -8t23.5 -17t19 -16.5t13.5 -7.5q9 0 14.5 6.5t10.5 14.5l10 16t11 12q14 5 19 -5t-2 -18q-13 -20 -28 -37.5t-29 -17.5q-16 0 -31.5 14t-29.5 24.5t-27 9.5t-23 -31z" />
<glyph unicode="&#xe4;" horiz-adv-x="264" d="M65 162q-4 -2 -14 -9t-17 -13q-2 -8 -8 -12.5t-14 1.5l-2 2q-5 10 3 21q8 9 19 16.5t20 14.5q48 35 86 28.5t63 -37.5t35 -77.5t1 -91.5q-2 -8 -8.5 -13t-14.5 1q-8 12 -14 25t-13 25t-16.5 22.5t-24.5 16.5q-6 3 -18 5.5t-22 -0.5q-4 -2 -13.5 -7t-19.5 -12t-17.5 -14 t-5.5 -12q12 -7 24 -7.5t23.5 2t23.5 6t24 5.5q7 0 10 -4t2 -9t-5 -9.5t-10 -5.5q-3 0 -16 -4t-33 -8q-37 -7 -52.5 1.5t-15 24.5t14 35t33.5 32.5t44 17t45 -10.5q22 -15 32.5 -30.5t20.5 -32.5q0 34 -10.5 66t-30 52t-47.5 22t-62 -23zM64 299q1 0 1 0.5t1 0.5 q11 11 21.5 6.5t4.5 -21.5q-2 -7 -5 -10.5t-8 -6.5q-4 0 -6 -2q-7 -1 -11 2t-5 7.5t0 10.5t5 11zM169 299q1 0 1 0.5t1 0.5q11 11 21.5 6.5t4.5 -21.5q-2 -7 -5 -10.5t-8 -6.5q-4 0 -6 -2q-7 -1 -11 2t-5 7.5t0 10.5t5 11z" />
<glyph unicode="&#xe5;" horiz-adv-x="264" d="M65 162q-4 -2 -14 -9t-17 -13q-2 -8 -8 -12.5t-14 1.5l-2 2q-5 10 3 21q8 9 19 16.5t20 14.5q48 35 86 28.5t63 -37.5t35 -77.5t1 -91.5q-2 -8 -8.5 -13t-14.5 1q-8 12 -14 25t-13 25t-16.5 22.5t-24.5 16.5q-6 3 -18 5.5t-22 -0.5q-4 -2 -13.5 -7t-19.5 -12t-17.5 -14 t-5.5 -12q12 -7 24 -7.5t23.5 2t23.5 6t24 5.5q7 0 10 -4t2 -9t-5 -9.5t-10 -5.5q-3 0 -16 -4t-33 -8q-37 -7 -52.5 1.5t-15 24.5t14 35t33.5 32.5t44 17t45 -10.5q22 -15 32.5 -30.5t20.5 -32.5q0 34 -10.5 66t-30 52t-47.5 22t-62 -23zM110 359q11 3 32 -1t29 -14 q15 -20 13 -39.5t-15 -33t-32.5 -18.5t-38.5 4l-10 4t-9 7q-6 7 -6 22t5 30.5t13.5 27t18.5 11.5zM151 327q-13 13 -27.5 10t-21.5 -14q-1 -2 -2 -6.5t-1 -10.5t1 -11.5t4 -8.5q18 -15 30 -13.5t18 11.5t6 23t-7 20z" />
<glyph unicode="&#xe6;" horiz-adv-x="415" d="M316 195q17 -15 21.5 -30t-0.5 -28t-16.5 -23.5t-26.5 -17t-31 -8.5t-29 2q8 -54 48 -63.5t101 39.5q7 5 11.5 4t6.5 -4.5t1 -9t-6 -10.5q-21 -17 -43 -29.5t-43 -17.5t-40.5 -1t-35.5 21q0 -4 -0.5 -7t-1.5 -7q-2 -8 -8.5 -13t-14.5 1q-8 12 -14 25t-13 25t-16.5 22.5 t-24.5 16.5q-6 3 -18 5.5t-22 -0.5q-4 -2 -13.5 -7t-19.5 -12t-17.5 -14t-5.5 -12q12 -7 24 -7.5t23.5 2t23.5 6t24 5.5q7 0 10 -4t2 -9t-5 -9.5t-10 -5.5q-3 0 -16 -4t-33 -8q-37 -7 -52.5 1.5t-15 24.5t14 35t33.5 32.5t44 17t45 -10.5q22 -15 32.5 -30.5t20.5 -32.5 q0 27 -9 60t-27 55.5t-46.5 26.5t-67.5 -25q-4 -2 -11 -8.5t-15 -13t-15.5 -10.5t-11.5 -1l-2 2q-4 9 -0.5 16.5t11 14t16.5 11.5t15 10q27 20 51 26t45 0.5t37.5 -19.5t28.5 -35q6 25 19 43.5t35 22.5q16 3 29.5 -7.5t23.5 -18.5zM238 163q-4 -19 -6 -38q5 -7 16.5 -8t24 2 t24 8.5t15.5 11.5q-2 13 -12 27t-22 21t-23.5 3t-16.5 -27z" />
<glyph unicode="&#xe7;" horiz-adv-x="218" d="M106 166q4 -5 4 -10.5t-3 -9.5t-8 -5.5t-11 2.5l-21 19q-15 0 -24 -10.5t-13.5 -24.5t-4 -29.5t5.5 -27.5q13 -29 47 -31q3 1 10 -1q23 1 47.5 11.5t41.5 24.5q2 8 9 11.5t14 -4.5l1 -2q5 -10 -5 -20q-13 -12 -29 -20t-32 -15q-21 -8 -44 -13q0 -1 -2 -3l-7 -29 q16 -3 32 -13q7 -4 16 -12.5t14 -19t3.5 -20t-14.5 -15.5q-28 -10 -56.5 -3.5t-55.5 8.5q-6 1 -10 5.5t-5 9.5t1.5 9t10.5 4q11 -1 25 -4t28 -5.5t27 -2t24 7.5q-7 14 -24.5 19t-30.5 7q-8 1 -12.5 6.5t-2.5 12.5q2 10 5 19.5t5 17.5q-28 3 -41.5 20t-16.5 40.5t2 48.5 t14 43q3 6 10.5 13t16.5 12t18.5 6t16.5 -5q7 -5 12.5 -10.5zM62 10v1v-1z" />
<glyph unicode="&#xe8;" horiz-adv-x="231" d="M117 194q17 -16 21.5 -30.5t-0.5 -27.5t-16.5 -23.5t-26.5 -17t-31 -8.5t-29 2q8 -54 48 -63.5t101 39.5q7 5 11.5 4t6.5 -4.5t1 -9t-6 -10.5q-26 -21 -52.5 -34.5t-51 -15t-45.5 12t-36 48.5q-6 15 -7.5 41t4.5 52t19 46.5t36 24.5q16 3 29.5 -7.5t23.5 -18.5zM39 162 q-4 -19 -6 -38q5 -7 16.5 -8t24 2t24 8.5t15.5 11.5q-2 13 -12 27t-22 21t-23.5 3t-16.5 -27zM12 326q-5 10 1 19t17 4q17 -15 37 -24t40 -20q3 -2 8.5 -4.5t10 -4.5t6.5 -4t-1 -2q13 -2 9.5 -14t-14.5 -14q-6 0 -22.5 8t-35 18.5t-34.5 21.5t-22 16z" />
<glyph unicode="&#xe9;" horiz-adv-x="231" d="M117 194q-10 8 -23.5 18.5t-29.5 7.5q-23 -4 -36 -24.5t-19 -46.5t-4.5 -52t7.5 -41q15 -35 36 -48.5t45.5 -12t51 15t52.5 34.5q5 5 6 10.5t-1 9t-6.5 4.5t-11.5 -4q-61 -49 -101 -39.5t-48 63.5q13 -4 29 -2t31 8.5t26.5 17t16.5 23.5t0.5 27.5t-21.5 30.5zM39 162 q5 23 16.5 27t23.5 -3t22 -21t12 -27q-4 -6 -15.5 -11.5t-24 -8.5t-24 -2t-16.5 8q2 19 6 38zM141 326q-6 -5 -22 -16t-34.5 -21.5t-35 -18.5t-22.5 -8q-11 2 -14.5 14t9.5 14q-3 0 -1 2t6.5 4t10 4.5t8.5 4.5q20 11 40 20t37 24q11 5 17 -4t1 -19z" />
<glyph unicode="&#xea;" horiz-adv-x="231" d="M117 194q17 -16 21.5 -30.5t-0.5 -27.5t-16.5 -23.5t-26.5 -17t-31 -8.5t-29 2q8 -54 48 -63.5t101 39.5q7 5 11.5 4t6.5 -4.5t1 -9t-6 -10.5q-26 -21 -52.5 -34.5t-51 -15t-45.5 12t-36 48.5q-6 15 -7.5 41t4.5 52t19 46.5t36 24.5q16 3 29.5 -7.5t23.5 -18.5zM39 162 q-4 -19 -6 -38q5 -7 16.5 -8t24 2t24 8.5t15.5 11.5q-2 13 -12 27t-22 21t-23.5 3t-16.5 -27zM70 352q12 6 28 -8q26 -29 40 -54.5t17 -30.5q5 -7 4 -12t-5 -7t-9.5 -1t-9.5 7q-3 4 -11.5 15.5t-17.5 24.5t-17 24t-9 14q-2 -3 -19 -22t-35 -54q-13 -2 -18.5 0t-4.5 13 q-1 5 19 30t48 61z" />
<glyph unicode="&#xeb;" horiz-adv-x="231" d="M117 194q17 -16 21.5 -30.5t-0.5 -27.5t-16.5 -23.5t-26.5 -17t-31 -8.5t-29 2q8 -54 48 -63.5t101 39.5q7 5 11.5 4t6.5 -4.5t1 -9t-6 -10.5q-26 -21 -52.5 -34.5t-51 -15t-45.5 12t-36 48.5q-6 15 -7.5 41t4.5 52t19 46.5t36 24.5q16 3 29.5 -7.5t23.5 -18.5zM39 162 q-4 -19 -6 -38q5 -7 16.5 -8t24 2t24 8.5t15.5 11.5q-2 13 -12 27t-22 21t-23.5 3t-16.5 -27zM17 299q1 0 1 0.5t1 0.5q11 11 21.5 6.5t4.5 -21.5q-2 -7 -5 -10.5t-8 -6.5q-4 0 -6 -2q-7 -1 -11 2t-5 7.5t0 10.5t5 11zM122 299q1 0 1 0.5t1 0.5q11 11 21.5 6.5t4.5 -21.5 q-2 -7 -5 -10.5t-8 -6.5q-4 0 -6 -2q-7 -1 -11 2t-5 7.5t0 10.5t5 11z" />
<glyph unicode="&#xec;" horiz-adv-x="137" d="M48 172q2 13 13 17t13 -12q-1 -41 -5.5 -80.5t-5.5 -80.5q-3 -10 -12.5 -14.5t-13.5 9.5q1 41 5.5 81t5.5 80zM4 326q-5 10 1 19t17 4q17 -15 37 -24t40 -20q3 -2 8.5 -4.5t10 -4.5t6.5 -4t-1 -2q13 -2 9.5 -14t-14.5 -14q-6 0 -22.5 8t-35 18.5t-34.5 21.5t-22 16z" />
<glyph unicode="&#xed;" horiz-adv-x="136" d="M45 172q-1 -40 -5.5 -80t-5.5 -81q4 -14 13.5 -9.5t12.5 14.5q1 41 5.5 80.5t5.5 80.5q-2 16 -13 12t-13 -17zM130 326q-6 -5 -22 -16t-34.5 -21.5t-35 -18.5t-22.5 -8q-11 2 -14.5 14t9.5 14q-3 0 -1 2t6.5 4t10 4.5t8.5 4.5q20 11 40 20t37 24q11 5 17 -4t1 -19z" />
<glyph unicode="&#xee;" horiz-adv-x="159" d="M68 172q2 13 13 17t13 -12q-1 -41 -5.5 -80.5t-5.5 -80.5q-3 -10 -12.5 -14.5t-13.5 9.5q1 41 5.5 81t5.5 80zM69 352q12 6 28 -8q26 -29 40 -54.5t17 -30.5q5 -7 4 -12t-5 -7t-9.5 -1t-9.5 7q-3 4 -11.5 15.5t-17.5 24.5t-17 24t-9 14q-2 -3 -19 -22t-35 -54 q-13 -2 -18.5 0t-4.5 13q-1 5 19 30t48 61z" />
<glyph unicode="&#xef;" horiz-adv-x="115" d="M34 172q2 13 13 17t13 -12q-1 -41 -5.5 -80.5t-5.5 -80.5q-3 -10 -12.5 -14.5t-13.5 9.5q1 41 5.5 81t5.5 80zM10 299q1 0 1 0.5t1 0.5q11 11 21.5 6.5t4.5 -21.5q-2 -7 -5 -10.5t-8 -6.5q-4 0 -6 -2q-7 -1 -11 2t-5 7.5t0 10.5t5 11zM82 299q1 0 1 0.5t1 0.5 q11 11 21.5 6.5t4.5 -21.5q-2 -7 -5 -10.5t-8 -6.5q-4 0 -6 -2q-7 -1 -11 2t-5 7.5t0 10.5t5 11z" />
<glyph unicode="&#xf0;" horiz-adv-x="319" d="M119 374q-6 -4 -10.5 -2.5t-6.5 6t-2 10t3 9.5q5 4 23.5 13.5t42.5 20.5q-17 31 -28 53.5t-11 25.5q-3 8 0.5 12.5t8.5 5.5t11 -1.5t9 -8.5l34 -74q33 14 58 25.5t31 8.5l7 -8l-2 -8q0 -2 -9 -7.5t-21.5 -12.5t-26.5 -13t-25 -9q40 -80 66 -142t30.5 -111.5t-15.5 -88 t-72 -72.5q-24 -16 -54.5 -17t-59 8.5t-52 29.5t-34.5 46q-15 35 -13 70t17 64.5t41 50t59 27t70.5 -5t76.5 -45.5q-6 13 -17 35.5t-23 48t-23.5 49.5t-20.5 41q-17 -6 -32.5 -14.5t-29.5 -19.5zM143 260q-30 1 -53.5 -12t-38 -35.5t-19 -52t4.5 -62.5q7 -24 25 -41.5 t42 -26.5t51 -8.5t51.5 12t42.5 35t24 61.5q4 23 -4.5 46t-26 41.5t-43 30t-56.5 12.5z" />
<glyph unicode="&#xf1;" horiz-adv-x="230" d="M6 182q2 13 13 17t13 -12l-2 -61q24 34 55.5 46t59 1t45.5 -44.5t14 -89.5v-1h-1q-3 -9 -12 -13t-13 9v12q1 48 -18.5 74.5t-45 29.5t-50.5 -19t-36 -73q0 -2 -1 -2v-6h-3q-5 -6 -12 -7t-10 10v4q2 32 2.5 62.5t1.5 62.5zM37 267q-4 -6 -9 -7.5t-9 1t-6 7.5t1 12 q10 27 22 37.5t24.5 10.5t25.5 -8t23.5 -17t19 -16.5t13.5 -7.5q9 0 14.5 6.5t10.5 14.5l10 16t11 12q14 5 19 -5t-2 -18q-13 -20 -28 -37.5t-29 -17.5q-16 0 -31.5 14t-29.5 24.5t-27 9.5t-23 -31z" />
<glyph unicode="&#xf2;" horiz-adv-x="189" d="M59 187q8 2 21 1t26.5 -4t25.5 -8t18 -12q22 -29 18.5 -57.5t-22 -48.5t-47.5 -27.5t-58 6.5q-8 4 -15.5 7t-13.5 9q-10 10 -9.5 32.5t8 45t20.5 39.5t28 17zM109 151q-23 13 -41 4t-29 -24q-2 -2 -4.5 -9.5t-5 -16t-2.5 -17t5 -12.5q17 -15 35 -18t33 1.5t25.5 15.5 t13.5 24.5t-4 27t-26 24.5zM35 326q-5 10 1 19t17 4q17 -15 37 -24t40 -20q3 -2 8.5 -4.5t10 -4.5t6.5 -4t-1 -2q13 -2 9.5 -14t-14.5 -14q-6 0 -22.5 8t-35 18.5t-34.5 21.5t-22 16z" />
<glyph unicode="&#xf3;" horiz-adv-x="189" d="M59 187q-15 0 -28 -17t-20.5 -39.5t-8 -45t9.5 -32.5q6 -6 13.5 -9t15.5 -7q29 -14 58 -6.5t47.5 27.5t22 48.5t-18.5 57.5q-6 7 -18 12t-25.5 8t-26.5 4t-21 -1zM109 151q19 -11 26 -24.5t4 -27t-13.5 -24.5t-25.5 -15.5t-33 -1.5t-35 18q-5 4 -5 12.5t2.5 17t5 16 t4.5 9.5q11 15 29 24t41 -4zM164 326q-6 -5 -22 -16t-34.5 -21.5t-35 -18.5t-22.5 -8q-11 2 -14.5 14t9.5 14q-3 0 -1 2t6.5 4t10 4.5t8.5 4.5q20 11 40 20t37 24q11 5 17 -4t1 -19z" />
<glyph unicode="&#xf4;" horiz-adv-x="189" d="M59 187q8 2 21 1t26.5 -4t25.5 -8t18 -12q22 -29 18.5 -57.5t-22 -48.5t-47.5 -27.5t-58 6.5q-8 4 -15.5 7t-13.5 9q-10 10 -9.5 32.5t8 45t20.5 39.5t28 17zM109 151q-23 13 -41 4t-29 -24q-2 -2 -4.5 -9.5t-5 -16t-2.5 -17t5 -12.5q17 -15 35 -18t33 1.5t25.5 15.5 t13.5 24.5t-4 27t-26 24.5zM77 352q12 6 28 -8q26 -29 40 -54.5t17 -30.5q5 -7 4 -12t-5 -7t-9.5 -1t-9.5 7q-3 4 -11.5 15.5t-17.5 24.5t-17 24t-9 14q-2 -3 -19 -22t-35 -54q-13 -2 -18.5 0t-4.5 13q-1 5 19 30t48 61z" />
<glyph unicode="&#xf5;" horiz-adv-x="208" d="M59 187q8 2 21 1t26.5 -4t25.5 -8t18 -12q22 -29 18.5 -57.5t-22 -48.5t-47.5 -27.5t-58 6.5q-8 4 -15.5 7t-13.5 9q-10 10 -9.5 32.5t8 45t20.5 39.5t28 17zM109 151q-23 13 -41 4t-29 -24q-2 -2 -4.5 -9.5t-5 -16t-2.5 -17t5 -12.5q17 -15 35 -18t33 1.5t25.5 15.5 t13.5 24.5t-4 27t-26 24.5zM25 267q-4 -6 -9 -7.5t-9 1t-6 7.5t1 12q10 27 22 37.5t24.5 10.5t25.5 -8t23.5 -17t19 -16.5t13.5 -7.5q9 0 14.5 6.5t10.5 14.5l10 16t11 12q14 5 19 -5t-2 -18q-13 -20 -28 -37.5t-29 -17.5q-16 0 -31.5 14t-29.5 24.5t-27 9.5t-23 -31z" />
<glyph unicode="&#xf6;" horiz-adv-x="189" d="M59 187q8 2 21 1t26.5 -4t25.5 -8t18 -12q22 -29 18.5 -57.5t-22 -48.5t-47.5 -27.5t-58 6.5q-8 4 -15.5 7t-13.5 9q-10 10 -9.5 32.5t8 45t20.5 39.5t28 17zM109 151q-23 13 -41 4t-29 -24q-2 -2 -4.5 -9.5t-5 -16t-2.5 -17t5 -12.5q17 -15 35 -18t33 1.5t25.5 15.5 t13.5 24.5t-4 27t-26 24.5zM24 299q1 0 1 0.5t1 0.5q11 11 21.5 6.5t4.5 -21.5q-2 -7 -5 -10.5t-8 -6.5q-4 0 -6 -2q-7 -1 -11 2t-5 7.5t0 10.5t5 11zM129 299q1 0 1 0.5t1 0.5q11 11 21.5 6.5t4.5 -21.5q-2 -7 -5 -10.5t-8 -6.5q-4 0 -6 -2q-7 -1 -11 2t-5 7.5t0 10.5t5 11 z" />
<glyph unicode="&#xf7;" horiz-adv-x="201" d="M17 175q-7 1 -9 5.5t-0.5 9.5t6 9t10.5 4h143q2 0 4 0.5t4 0.5q7 0 10 -3.5t2 -8t-4 -9t-7 -7.5q-14 -2 -35.5 -2.5t-44 0t-43.5 1t-36 0.5zM100 269q2 0 3.5 -0.5t2.5 -0.5q5 -1 7 -5t0 -12q-4 -11 -11.5 -15.5t-18.5 4.5q-4 8 0 16q6 12 17 13zM117 131q-2 -6 -6.5 -11 t-9.5 -7t-9.5 0.5t-7.5 11.5v2q1 8 5.5 14t10.5 8t11 -1.5t6 -13.5v-3z" />
<glyph unicode="&#xf8;" horiz-adv-x="189" d="M125 209q8 11 19.5 9.5t6.5 -15.5l-14 -29q5 -2 8 -5l5 -5q19 -26 18.5 -51.5t-14 -45t-37 -31t-48.5 -8.5q-3 -5 -5.5 -10.5t-5.5 -12.5q-8 -8 -18.5 -7t-8.5 14l11 24l-1 1q-8 4 -15.5 7t-13.5 9q-10 10 -9.5 32.5t8 45t20.5 39.5t28 17q8 2 23.5 1t30.5 -5zM32 76 q5 -5 11 -8.5t11 -5.5q10 22 15 31.5t8.5 16.5l8 16t13.5 29q-20 7 -35.5 -1.5t-24.5 -22.5q-2 -2 -4.5 -9.5t-5 -16t-2.5 -17t5 -12.5zM82 56q17 0 31 9t21 21.5t5 27.5t-17 28z" />
<glyph unicode="&#xf9;" horiz-adv-x="243" d="M6 175q0 5 3.5 9.5t7.5 7t8 1t6 -8.5q2 -16 3 -29t3 -25t6.5 -23.5t12.5 -25.5q13 -21 30 -30t34 -7t30.5 16t19.5 38q5 20 6 38.5t2 37.5q1 9 8.5 15.5t15.5 -2.5q6 -11 10 -37.5t6.5 -54t4 -49.5t1.5 -23q1 -12 -10 -17.5t-15 8.5q-4 18 -4.5 37t-1.5 39 q-5 -11 -9 -22.5t-12 -21.5q-30 -38 -60 -38t-54 23t-38.5 62.5t-13.5 81.5zM52 326q-5 10 1 19t17 4q17 -15 37 -24t40 -20q3 -2 8.5 -4.5t10 -4.5t6.5 -4t-1 -2q13 -2 9.5 -14t-14.5 -14q-6 0 -22.5 8t-35 18.5t-34.5 21.5t-22 16z" />
<glyph unicode="&#xfa;" horiz-adv-x="243" d="M6 175q-1 -42 13.5 -81.5t38.5 -62.5t54 -23t60 38q8 10 12 21.5t9 22.5q1 -20 1.5 -39t4.5 -37q4 -14 15 -8.5t10 17.5q0 1 -1.5 23t-4 49.5t-6.5 54t-10 37.5q-8 9 -15.5 2.5t-8.5 -15.5q-1 -19 -2 -37.5t-6 -38.5q-6 -24 -19.5 -38t-30.5 -16t-34 7t-30 30 q-8 14 -12.5 25.5t-6.5 23.5t-3 25t-3 29q-2 7 -6 8.5t-8 -1t-7.5 -7t-3.5 -9.5zM181 326q-6 -5 -22 -16t-34.5 -21.5t-35 -18.5t-22.5 -8q-11 2 -14.5 14t9.5 14q-3 0 -1 2t6.5 4t10 4.5t8.5 4.5q20 11 40 20t37 24q11 5 17 -4t1 -19z" />
<glyph unicode="&#xfb;" horiz-adv-x="243" d="M6 175q0 5 3.5 9.5t7.5 7t8 1t6 -8.5q2 -16 3 -29t3 -25t6.5 -23.5t12.5 -25.5q13 -21 30 -30t34 -7t30.5 16t19.5 38q5 20 6 38.5t2 37.5q1 9 8.5 15.5t15.5 -2.5q6 -11 10 -37.5t6.5 -54t4 -49.5t1.5 -23q1 -12 -10 -17.5t-15 8.5q-4 18 -4.5 37t-1.5 39 q-5 -11 -9 -22.5t-12 -21.5q-30 -38 -60 -38t-54 23t-38.5 62.5t-13.5 81.5zM94 352q12 6 28 -8q26 -29 40 -54.5t17 -30.5q5 -7 4 -12t-5 -7t-9.5 -1t-9.5 7q-3 4 -11.5 15.5t-17.5 24.5t-17 24t-9 14q-2 -3 -19 -22t-35 -54q-13 -2 -18.5 0t-4.5 13q-1 5 19 30t48 61z" />
<glyph unicode="&#xfc;" horiz-adv-x="243" d="M6 175q0 5 3.5 9.5t7.5 7t8 1t6 -8.5q2 -16 3 -29t3 -25t6.5 -23.5t12.5 -25.5q13 -21 30 -30t34 -7t30.5 16t19.5 38q5 20 6 38.5t2 37.5q1 9 8.5 15.5t15.5 -2.5q6 -11 10 -37.5t6.5 -54t4 -49.5t1.5 -23q1 -12 -10 -17.5t-15 8.5q-4 18 -4.5 37t-1.5 39 q-5 -11 -9 -22.5t-12 -21.5q-30 -38 -60 -38t-54 23t-38.5 62.5t-13.5 81.5zM43 299q1 0 1 0.5t1 0.5q11 11 21.5 6.5t4.5 -21.5q-2 -7 -5 -10.5t-8 -6.5q-4 0 -6 -2q-7 -1 -11 2t-5 7.5t0 10.5t5 11zM148 299q1 0 1 0.5t1 0.5q11 11 21.5 6.5t4.5 -21.5q-2 -7 -5 -10.5 t-8 -6.5q-4 0 -6 -2q-7 -1 -11 2t-5 7.5t0 10.5t5 11z" />
<glyph unicode="&#xfd;" horiz-adv-x="239" d="M18 196q-15 -24 -16 -52t9.5 -52.5t31.5 -41.5t51 -20q34 -3 57 18.5t36 52.5q6 -26 12 -55t10.5 -58.5t5 -58.5t-4.5 -56q-5 -24 -18.5 -36t-32 -15.5t-39.5 0t-40 9.5q-3 7 -7.5 8t-8.5 -1.5t-7 -8t-1 -11.5q7 -18 31.5 -25t52 -4.5t52 13.5t31.5 28q18 44 17 91 t-8.5 92.5t-17 88.5t-9.5 78v1q0 1 -0.5 1t-0.5 1q0 3 -2 5q-3 6 -10 4l-6 -3l-3 -3q0 -1 -2 -3q0 -1 -0.5 -1.5t-0.5 -1.5q-1 -2 -1 -5v-7q-1 -13 -5 -31.5t-13 -36t-24 -29.5t-38 -13q-24 0 -40 13.5t-24 33.5t-7 42.5t12 39.5q2 7 0.5 11t-5.5 5.5t-8.5 -0.5t-8.5 -7z M193 326q-6 -5 -22 -16t-34.5 -21.5t-35 -18.5t-22.5 -8q-11 2 -14.5 14t9.5 14q-3 0 -1 2t6.5 4t10 4.5t8.5 4.5q20 11 40 20t37 24q11 5 17 -4t1 -19z" />
<glyph unicode="&#xfe;" horiz-adv-x="236" d="M6 532q2 13 13 17t13 -12v-26.5t0.5 -33t0.5 -36v-34.5l8 8t16 12t23.5 10t30.5 2q37 -5 60 -39.5t34.5 -79.5t13 -91.5t-2.5 -75.5q-5 -30 -21 -63t-40 -54t-54.5 -21t-64.5 37l3 -248q-3 -10 -12.5 -14.5t-13.5 9.5q-1 40 -1.5 98.5t-1 127t-1 141.5t-1 141.5t-1 127 t-1.5 97.5zM43 80q15 -24 33.5 -31.5t37 -2.5t35 21t26.5 39q7 18 12.5 47t6 62.5t-4 68t-16.5 63t-32 46.5t-50 20q-9 0 -18 -4t-17 -10t-14 -12l-8 -8z" />
<glyph unicode="&#xff;" horiz-adv-x="239" d="M18 196q4 5 8.5 7t8.5 0.5t5.5 -5.5t-0.5 -11q-11 -17 -12 -39.5t7 -42.5t24 -33.5t40 -13.5q23 1 38 13t24 29.5t13 36t5 31.5v7q0 3 1 5q0 1 0.5 1.5t0.5 1.5q2 2 2 3l3 3l6 3q7 2 10 -4q2 -2 2 -5q0 -1 0.5 -1t0.5 -1v-1q0 -35 9.5 -78t17 -88.5t8.5 -92.5t-17 -91 q-7 -17 -31.5 -28t-52 -13.5t-52 4.5t-31.5 25q-2 6 1 11.5t7 8t8.5 1.5t7.5 -8q19 -6 40 -9.5t39.5 0t32 15.5t18.5 36q5 27 4.5 56t-5 58.5t-10.5 58.5t-12 55q-13 -31 -36 -52.5t-57 -18.5q-30 3 -51 20t-31.5 41.5t-9.5 52.5t16 52zM56 299q1 0 1 0.5t1 0.5 q11 11 21.5 6.5t4.5 -21.5q-2 -7 -5 -10.5t-8 -6.5q-4 0 -6 -2q-7 -1 -11 2t-5 7.5t0 10.5t5 11zM161 299q1 0 1 0.5t1 0.5q11 11 21.5 6.5t4.5 -21.5q-2 -7 -5 -10.5t-8 -6.5q-4 0 -6 -2q-7 -1 -11 2t-5 7.5t0 10.5t5 11z" />
<glyph unicode="&#x141;" horiz-adv-x="324" d="M23 180q-6 -5 -10.5 -5t-7.5 3t-3 8t4 11q6 5 13 9q5 4 11.5 8.5t11.5 7.5q1 0 1 0.5t1 0.5q-3 67 -6 133t-4 133q1 6 4.5 10.5t8 6t8.5 -1t5 -9.5q1 -4 2 -28t2.5 -59.5t3 -79t2.5 -87.5q15 11 30.5 19t33.5 12q7 0 10 -3.5t2 -8t-4 -9t-7 -7.5q-8 -2 -26 -10.5 t-38 -19.5q1 -32 2 -61t1.5 -51.5t1 -36t0.5 -14.5q58 3 114 12t114 11q7 0 10 -4t2 -9t-5 -9.5t-10 -5.5q-62 -2 -122 -12t-123 -12q-10 1 -10.5 8t4.5 13v1q-1 38 -2 77t-3 77q-8 -5 -13.5 -10t-8.5 -8z" />
<glyph unicode="&#x142;" horiz-adv-x="156" d="M23 180q-6 -5 -10.5 -5t-7.5 3t-3 8t4 11q6 5 13 9q5 4 11.5 8.5t11.5 7.5l8 5q-4 63 -7.5 124.5t-4.5 124.5q2 13 13 17t13 -12q1 -60 4 -118.5t7 -118.5q14 10 28 17t31 11q7 0 10 -3.5t2 -8t-4 -9t-7 -7.5q-8 -2 -24.5 -9t-34.5 -18q3 -52 5.5 -103.5t4.5 -104.5 q-3 -10 -12.5 -14.5t-13.5 9.5q-3 99 -9 198q-20 -13 -28 -22z" />
<glyph unicode="&#x152;" horiz-adv-x="533" d="M265 29q-12 0 -10 10q-22 -13 -46 -19.5t-52 -4.5q-50 3 -82.5 26.5t-50 60t-21 81.5t4.5 91.5t26.5 90.5t44.5 77t59 52t71 16q19 -3 35 -9q5 9 14 11t11 -10q54 1 106.5 6t105.5 6q7 0 10 -4t2 -9t-5 -9.5t-10 -5.5q-52 -1 -104 -5.5t-105 -6.5q1 -90 6 -180 q41 1 79.5 6t78.5 6q7 0 10 -4t2 -9t-5 -9.5t-10 -5.5q-38 -1 -76.5 -5.5t-76.5 -6.5q2 -53 4.5 -104.5t3.5 -103.5q58 3 114 12t114 11q7 0 10 -4t2 -9t-5 -9.5t-10 -5.5q-62 -2 -122 -12t-123 -12zM163 39q27 1 51.5 12t44.5 30q-2 97 -8 193.5t-8 193.5q-20 9 -42 12 q-42 1 -76.5 -29t-57.5 -76.5t-32 -101.5t1 -104.5t40.5 -85.5t86.5 -44z" />
<glyph unicode="&#x153;" horiz-adv-x="293" d="M198 199q17 -16 21.5 -30.5t-0.5 -27.5t-16.5 -23.5t-26.5 -17t-31 -8.5t-29 2q8 -54 48 -63.5t101 39.5q7 5 11.5 4t6.5 -4.5t1 -9t-6 -10.5q-37 -29 -74 -43.5t-67 0.5q-35 -13 -61 -8t-42.5 21t-24.5 40.5t-7.5 51t9 51t24.5 41t39.5 22t54.5 -7.5v-1q6 5 16 8 q16 4 29.5 -7t23.5 -19zM110 196q-27 9 -45.5 -2.5t-27.5 -33.5t-9 -49t9 -48.5t27.5 -32.5t45.5 0q-5 7 -9 14.5t-8 16.5q-5 11 -6.5 28t1 36t8 37.5t14.5 33.5zM120 167q-4 -19 -6 -38q5 -7 16.5 -8t24 2t24 8.5t15.5 11.5q-2 13 -12 27t-22 21t-23.5 3t-16.5 -27z" />
<glyph unicode="&#x160;" horiz-adv-x="365" d="M321 468q-35 14 -83 23t-94.5 4.5t-84 -27t-51.5 -71.5q-7 -39 -5 -63.5t14 -40.5t35 -26t58 -20q20 -6 47 -9t54 -7.5t51 -11.5t39 -19t17 -31.5t-15 -48.5q-12 -20 -33.5 -37t-47 -28.5t-52 -16t-48.5 1.5q-18 5 -34.5 18.5t-23.5 30.5q-4 10 -4.5 18.5t-1 15.5t-2 13 t-7.5 11q-24 -6 -26 -21.5t6 -33.5t22.5 -35t23.5 -27q26 -27 67 -26.5t81.5 18.5t74 49t46 64.5t-3 64.5t-73.5 50q-24 8 -52.5 11.5t-57.5 7.5t-55.5 10.5t-44.5 20t-25.5 36t1.5 58.5q7 26 25 42t42.5 23.5t52.5 8.5t56 -2.5t53.5 -10t43.5 -13.5q11 -1 17 8.5t-2 17.5z M163 517q-28 36 -48 61t-19 30q-1 11 4.5 13t18.5 0q18 -35 35 -54t19 -22q1 3 9 14t17 24t17.5 24.5t11.5 15.5q4 6 9.5 7t9.5 -1t5 -7t-4 -12q-3 -5 -17 -30.5t-40 -54.5q-16 -14 -28 -8z" />
<glyph unicode="&#x161;" horiz-adv-x="246" d="M226 179q-9 22 -35.5 28t-58 3t-61 -12.5t-43.5 -17.5q-6 -3 -12 -12t-8 -11q-8 -11 -2 -21q15 -23 37 -34.5t47 -19l50 -15t46 -21.5q-2 -15 -16.5 -21t-33 -5.5t-37 6.5t-28.5 16q-11 5 -17 -4t-1 -19q16 -18 42 -24.5t51.5 -2t44.5 20.5t22 43q-1 4 -1.5 6.5t-3.5 4.5 q-18 12 -43.5 19.5t-50.5 16t-47.5 19t-34.5 27.5q4 5 17 11t30.5 11t37.5 8.5t37.5 3.5t30.5 -5t18 -16q4 -6 8.5 -6.5t8.5 3t6 9.5t0 11zM113 225q-28 36 -48 61t-19 30q-1 11 4.5 13t18.5 0q18 -35 35 -54t19 -22q1 3 9 14t17 24t17.5 24.5t11.5 15.5q4 6 9.5 7t9.5 -1 t5 -7t-4 -12q-3 -5 -17 -30.5t-40 -54.5q-16 -14 -28 -8z" />
<glyph unicode="&#x178;" horiz-adv-x="429" d="M-3 446q1 6 6 10.5t10.5 5.5t10.5 -1.5t5 -10.5q7 -136 16.5 -212.5t16.5 -101.5q11 -40 39 -68t62.5 -37t70 4t62.5 56q24 38 37 79t18.5 84t5 87t-3.5 89q-6 6 -1 16q-5 3 -2 13q1 1 1 3q3 8 10.5 12t12.5 -4l6.5 -30.5t13.5 -80.5t10.5 -113t-2.5 -128t-25 -126 t-57 -106q-23 -27 -53.5 -43.5t-63 -21t-65.5 4.5t-61 32q-6 5 -16.5 19t-17 29t-4.5 27.5t20 15.5q5 3 8.5 -5.5t8.5 -21.5t13 -28t22 -27t35 -17.5t53 1.5q61 12 98.5 54t57 100.5t24.5 127t1 134.5q-6 -44 -18 -91.5t-35.5 -87t-59.5 -64.5t-90 -23q-47 2 -76.5 24 t-47.5 58t-26 81.5t-12.5 94.5t-7.5 97.5t-10 89.5zM138 572q1 0 1 0.5t1 0.5q11 11 21.5 6.5t4.5 -21.5q-2 -7 -5 -10.5t-8 -6.5q-4 0 -6 -2q-7 -1 -11 2t-5 7.5t0 10.5t5 11zM243 572q1 0 1 0.5t1 0.5q11 11 21.5 6.5t4.5 -21.5q-2 -7 -5 -10.5t-8 -6.5q-4 0 -6 -2 q-7 -1 -11 2t-5 7.5t0 10.5t5 11z" />
<glyph unicode="&#x17d;" horiz-adv-x="389" d="M60 492q23 -8 60.5 -16.5t78 -18t78 -18.5t60.5 -16q-2 -2 -24 -27.5t-55.5 -64.5t-72.5 -85.5t-75.5 -89.5t-65 -76.5t-39.5 -46.5q-5 -6 -5.5 -12t6.5 -11q9 -5 36.5 -3.5t65 7.5t79 13.5t78.5 15.5t64.5 13.5t35.5 6.5q5 8 9.5 15.5t-6.5 12.5q-2 0 -5 0.5t-6 0.5 q-6 0 -10 -3q-14 -2 -38.5 -7t-54.5 -10.5t-62 -12t-62 -12.5t-55 -10t-39 -6q6 3 30 29.5t57 65t71.5 84t73.5 87.5t62 75t38 46q8 9 8.5 13t-5.5 10q-25 11 -65 21.5t-83.5 20.5t-84.5 19t-67 18q-11 0 -16 -10t5 -18zM215 512q-28 36 -48 61t-19 30q-1 11 4.5 13t18.5 0 q18 -35 35 -54t19 -22q1 3 9 14t17 24t17.5 24.5t11.5 15.5q4 6 9.5 7t9.5 -1t5 -7t-4 -12q-3 -5 -17 -30.5t-40 -54.5q-16 -14 -28 -8z" />
<glyph unicode="&#x17e;" horiz-adv-x="289" d="M17 191q47 -15 93 -28.5t92 -28.5q-19 -17 -40.5 -32l-43 -30t-42 -31.5t-37.5 -35.5q-5 -6 -5.5 -12t6.5 -11q9 -5 26.5 -5.5t39 2t45.5 7t45.5 9t39 8t25.5 4.5q8 5 11 14t-8 14q-2 0 -5 0.5t-6 0.5q-6 0 -10 -3q-43 -7 -86 -16t-87 -14q42 32 83 62t80 64q14 12 3 23 q-50 23 -103 36.5t-105 30.5q-11 0 -16 -10t5 -18zM131 215q-28 36 -48 61t-19 30q-1 11 4.5 13t18.5 0q18 -35 35 -54t19 -22q1 3 9 14t17 24t17.5 24.5t11.5 15.5q4 6 9.5 7t9.5 -1t5 -7t-4 -12q-3 -5 -17 -30.5t-40 -54.5q-16 -14 -28 -8z" />
<glyph unicode="&#x192;" horiz-adv-x="235" d="M80 167q-17 -2 -34.5 -2.5t-34.5 -1.5q-7 1 -9 5t-0.5 8.5t5 8.5t7.5 6q17 1 32.5 1.5t32.5 2.5q0 42 3 79.5t11.5 65.5t24 44t40.5 14q13 2 24.5 -8.5t19.5 -28.5t13 -41t6 -45q-3 -10 -10 -10t-16 5q1 16 -1.5 34.5t-7.5 34t-13.5 24.5t-20.5 6q-14 -1 -23.5 -14 t-15.5 -35.5t-8.5 -53.5t-1.5 -68q17 2 36 2.5t36 1.5q7 0 10 -4t2 -9t-5 -9.5t-10 -5.5q-17 -1 -32.5 -1.5t-32.5 -2.5q3 -60 7.5 -105.5t8 -78t3.5 -53t-6 -30.5q-10 -15 -29 -16.5t-38 7t-34 26t-16 39.5q2 13 13 17t13 -12q1 -11 8 -21.5t17.5 -17.5t23 -9.5t23.5 2.5 q4 0 3.5 11t-4 39.5t-9 77t-11.5 121.5z" />
<glyph unicode="&#x2c6;" horiz-adv-x="166" d="M68 620q12 6 28 -8q26 -29 40 -54.5t17 -30.5q5 -7 4 -12t-5 -7t-9.5 -1t-9.5 7q-3 4 -11.5 15.5t-17.5 24.5t-17 24t-9 14q-2 -3 -19 -22t-35 -54q-13 -2 -18.5 0t-4.5 13q-1 5 19 30t48 61z" />
<glyph unicode="&#x2c7;" horiz-adv-x="165" d="M67 517q-28 36 -48 61t-19 30q-1 11 4.5 13t18.5 0q18 -35 35 -54t19 -22q1 3 9 14t17 24t17.5 24.5t11.5 15.5q4 6 9.5 7t9.5 -1t5 -7t-4 -12q-3 -5 -17 -30.5t-40 -54.5q-16 -14 -28 -8z" />
<glyph unicode="&#x2d8;" horiz-adv-x="128" d="M112 599q0 -15 -7.5 -28t-20 -21t-28 -10t-30.5 6l-10 4t-9 7q-6 6 -6.5 19t3.5 27l23 -1q-1 -7 0 -15t5 -12q14 -12 24.5 -13.5t17 4t10 14.5t2.5 18z" />
<glyph unicode="&#x2d9;" horiz-adv-x="91" d="M64 595q7 -7 7 -20t-6 -23t-18 -11.5t-30 13.5q-3 3 -4 8.5t-1 11.5t1 10.5t2 6.5q7 11 21.5 14t27.5 -10z" />
<glyph unicode="&#x2da;" horiz-adv-x="130" d="M38 627q11 3 32 -1t29 -14q15 -20 13 -39.5t-15 -33t-32.5 -18.5t-38.5 4l-10 4t-9 7q-6 7 -6 22t5 30.5t13.5 27t18.5 11.5zM79 595q-13 13 -27.5 10t-21.5 -14q-1 -2 -2 -6.5t-1 -10.5t1 -11.5t4 -8.5q18 -15 30 -13.5t18 11.5t6 23t-7 20z" />
<glyph unicode="&#x2dc;" horiz-adv-x="214" d="M26 534q-4 -6 -9 -7.5t-9 1t-6 7.5t1 12q10 27 22 37.5t24.5 10.5t25.5 -8t23.5 -17t19 -16.5t13.5 -7.5q9 0 14.5 6.5t10.5 14.5l10 16t11 12q14 5 19 -5t-2 -18q-13 -20 -28 -37.5t-29 -17.5q-16 0 -31.5 14t-29.5 24.5t-27 9.5t-23 -31z" />
<glyph unicode="&#x3bc;" horiz-adv-x="302" d="M7 220q9 10 18.5 0t21.5 -29.5t25.5 -42t30 -39t36 -20.5t42.5 15q19 15 34 37t32 49q7 9 14.5 8.5t9.5 -12.5q0 -4 2 -17t4 -30.5t4 -37t3.5 -37t1.5 -30.5t-2 -17q-5 -9 -13.5 -13.5t-12.5 8.5v1q-5 33 -5 62t-2 63q-23 -38 -51 -59.5t-57 -21.5t-57 23.5t-50 74.5 q-3 -49 -3.5 -92.5t0 -85.5t1 -85t0.5 -92q-3 -10 -12.5 -14.5t-13.5 9.5z" />
<glyph unicode="&#x2013;" horiz-adv-x="204" d="M17 132q-7 1 -9 5.5t-0.5 9.5t6 9t10.5 4q12 0 31.5 -0.5t40 -0.5t39.5 -0.5t31 -0.5q2 0 4 0.5t4 0.5q7 0 10 -3.5t2 -8t-4 -9t-7 -7.5q-14 -2 -35 -2t-43.5 0.5t-43.5 1.5t-36 1z" />
<glyph unicode="&#x2014;" horiz-adv-x="265" d="M17 132q-7 1 -9 5.5t-0.5 9.5t6 9t10.5 4h40.5t59.5 -0.5t59 -0.5h40q2 0 4 0.5t4 0.5q15 0 13.5 -11.5t-12.5 -16.5q-14 -2 -44 -2t-63 0.5t-63 1t-45 0.5z" />
<glyph unicode="&#x2018;" horiz-adv-x="73" d="M41 350q-1 -6 -6.5 -10.5t-12 -5.5t-12 1.5t-6.5 10.5q0 6 1 18t4.5 26.5t9.5 29t14 26.5q9 9 17 4t3 -17q-5 -7 -8 -18t-4 -23t-0.5 -23.5t0.5 -18.5z" />
<glyph unicode="&#x2019;" horiz-adv-x="75" d="M22 433q1 6 6.5 10.5t12 5.5t12 -1.5t6.5 -10.5q0 -6 -1 -18t-4.5 -26.5t-9.5 -29t-14 -26.5q-9 -9 -17 -4t-3 17q5 7 8 18t4 23t0.5 23t-0.5 19z" />
<glyph unicode="&#x201c;" horiz-adv-x="145" d="M115 350q-1 -6 -6.5 -10.5t-12 -5.5t-12 1.5t-6.5 10.5q0 6 1 18t4.5 26.5t9.5 29t14 26.5q9 9 17 4t3 -17q-5 -7 -8 -18t-4 -23t-0.5 -23.5t0.5 -18.5zM41 350q-1 -6 -6.5 -10.5t-12 -5.5t-12 1.5t-6.5 10.5q0 6 1 18t4.5 26.5t9.5 29t14 26.5q9 9 17 4t3 -17 q-5 -7 -8 -18t-4 -23t-0.5 -23.5t0.5 -18.5z" />
<glyph unicode="&#x201d;" horiz-adv-x="160" d="M22 433q1 6 6.5 10.5t12 5.5t12 -1.5t6.5 -10.5q0 -6 -1 -18t-4.5 -26.5t-9.5 -29t-14 -26.5q-9 -9 -17 -4t-3 17q5 7 8 18t4 23t0.5 23t-0.5 19zM96 433q1 6 6.5 10.5t12 5.5t12 -1.5t6.5 -10.5q0 -6 -1 -18t-4.5 -26.5t-9.5 -29t-14 -26.5q-9 -9 -17 -4t-3 17q5 7 8 18 t4 23t0.5 23t-0.5 19z" />
<glyph unicode="&#x2020;" horiz-adv-x="203" d="M12 317q-7 1 -9 5.5t-0.5 9.5t6 9t10.5 4h31.5t30.5 1q0 57 -0.5 104.5t-1.5 81.5q2 13 13 17t13 -12q1 -35 1.5 -84t0.5 -106q17 1 34 1.5t34 0.5q7 0 10 -4t2 -9t-5 -9.5t-10 -5.5q-17 0 -32.5 -0.5t-32.5 -1.5q1 -68 1.5 -141.5t1 -142t1 -128t1.5 -99.5 q-3 -10 -12.5 -14.5t-13.5 9.5q-1 40 -1.5 100t-1 129.5t-1 143t-1.5 142.5q-17 -1 -34 -1h-35z" />
<glyph unicode="&#x2021;" horiz-adv-x="200" d="M11 -4q-7 1 -9 5t-0.5 8.5t5 8.5t7.5 6q34 0 69 3l-2 291q-17 -1 -34 -1h-35q-7 1 -9 5.5t-0.5 9.5t6 9t10.5 4h31.5t30.5 1q0 57 -0.5 104.5t-1.5 81.5q2 13 13 17t13 -12q1 -35 1.5 -84t0.5 -106q17 1 34 1.5t34 0.5q7 0 10 -4t2 -9t-5 -9.5t-10 -5.5q-17 0 -32.5 -0.5 t-32.5 -1.5l2 -290q16 2 31.5 2t31.5 1q7 0 10 -4t2 -9t-5 -9.5t-10 -5.5q-15 -1 -30 -1t-30 -2l3 -193q-3 -10 -12.5 -14.5t-13.5 9.5l-3 197q-18 -2 -36 -2.5t-36 -1.5z" />
<glyph unicode="&#x2022;" horiz-adv-x="118" d="M18 145q-10 15 -1.5 33t37.5 19q10 2 21 -2t17.5 -11.5t7.5 -17.5t-8 -21q-7 -8 -17.5 -14t-21.5 -7t-20.5 3.5t-14.5 17.5z" />
<glyph unicode="&#x2030;" horiz-adv-x="530" d="M58 438q8 2 21 1t26.5 -4t25.5 -8t18 -12q22 -29 18.5 -57.5t-22 -48.5t-47.5 -27.5t-58 6.5q-8 4 -15.5 7t-13.5 9q-10 10 -9.5 32.5t8 45t20.5 39.5t28 17zM108 402q-23 13 -41 4t-29 -24q-2 -2 -4.5 -9.5t-5 -16t-2.5 -17t5 -12.5q17 -15 35 -18t33 1.5t25.5 15.5 t13.5 24.5t-4 27t-26 24.5zM245 479q8 11 19.5 9.5t6.5 -15.5q-25 -54 -50.5 -113t-51 -119.5t-51 -119.5t-50.5 -113q-8 -8 -18.5 -7t-8.5 14q25 54 51 113.5t51.5 119.5t51 119t50.5 112zM223 248q8 2 21 1t26.5 -4t25.5 -8t18 -12q22 -29 18.5 -57.5t-22 -48.5 t-47.5 -27.5t-58 6.5q-8 4 -15.5 7t-13.5 9q-10 10 -9.5 32.5t8 45t20.5 39.5t28 17zM273 212q-23 13 -41 4t-29 -24q-2 -2 -4.5 -9.5t-5 -16t-2.5 -17t5 -12.5q17 -15 35 -18t33 1.5t25.5 15.5t13.5 24.5t-4 27t-26 24.5zM401 285q8 2 21 1t26.5 -4t25.5 -8t18 -12 q22 -29 18.5 -57.5t-22 -48.5t-47.5 -27.5t-58 6.5q-8 4 -15.5 7t-13.5 9q-10 10 -9.5 32.5t8 45t20.5 39.5t28 17zM451 249q-23 13 -41 4t-29 -24q-2 -2 -4.5 -9.5t-5 -16t-2.5 -17t5 -12.5q17 -15 35 -18t33 1.5t25.5 15.5t13.5 24.5t-4 27t-26 24.5z" />
<glyph unicode="&#x2044;" horiz-adv-x="255" d="M210 482q8 11 19.5 9.5t6.5 -15.5q-25 -54 -50.5 -113t-51 -119.5t-51 -119.5t-50.5 -113q-8 -8 -18.5 -7t-8.5 14q25 54 51 113.5t51.5 119.5t51 119t50.5 112z" />
<glyph unicode="&#x20ac;" horiz-adv-x="260" d="M15 172q-7 1 -9 5t-0.5 8.5t5 8.5t7.5 6q23 0 51 5q-2 28 3 55q-20 -1 -34 -0.5t-19 4.5t-5.5 9.5t2 10t7.5 6.5t11 0q4 -3 15.5 -3.5t28.5 0.5q3 19 11.5 43.5t22.5 46t34 38t44 20.5q7 5 12.5 3t7.5 -6.5t1 -10t-8 -6.5q-27 -7 -45.5 -23.5t-29.5 -36t-16.5 -38 t-8.5 -28.5q16 1 33 3t32.5 4t28 3.5t19.5 1.5t10 -4t2 -9t-5 -9.5t-10 -5.5q-14 -1 -48 -5t-69 -7q-5 -26 -3 -52q17 3 36.5 4.5t37 3t29.5 3t14 3.5q7 0 10 -4t2 -9t-5 -9.5t-10 -5.5q0 -2 -11 -3t-28 -2.5t-36.5 -3t-35.5 -4.5q9 -47 38.5 -78.5t85.5 -33.5q7 -3 8 -7.5 t-1 -9.5t-7 -8t-11 -3q-29 0 -53 11t-42 29.5t-29 43t-14 51.5q-14 -2 -28 -3z" />
<glyph unicode="&#x2212;" horiz-adv-x="208" d="M17 175q-7 1 -9 5.5t-0.5 9.5t6 9t10.5 4h143q2 0 4 0.5t4 0.5q7 0 10 -3.5t2 -8t-4 -9t-7 -7.5q-14 -2 -35.5 -2.5t-44 0t-43.5 1t-36 0.5z" />
<glyph unicode="&#x25fc;" horiz-adv-x="210" d="M0 210h210v-210h-210v210z" />
<glyph unicode="&#xfb01;" horiz-adv-x="177" d="M-63 279q-7 1 -9 5t-0.5 8.5t5 8.5t7.5 6q17 1 32.5 1.5t32.5 2.5q0 42 3 79.5t11.5 65.5t24 44t40.5 14q13 2 24.5 -8.5t19.5 -28.5t13 -41t6 -45q-3 -10 -10 -10t-16 5q1 16 -1.5 34.5t-7.5 34t-13.5 24.5t-20.5 6q-14 -1 -23.5 -14t-15.5 -35.5t-8.5 -53.5t-1.5 -68 q17 2 36 2.5t36 1.5q7 0 10 -4t2 -9t-5 -9.5t-10 -5.5q-17 -1 -32.5 -1.5t-32.5 -2.5q3 -71 11.5 -140t13.5 -124q3 -6 -1.5 -13.5t-12.5 -8.5q-8 1 -11 10q-6 60 -15 130.5t-12 142.5q-17 -2 -34.5 -2.5t-34.5 -1.5zM50 28l1 -1v1h-1zM103 171q2 13 13 17t13 -12 q-1 -41 -5.5 -80.5t-5.5 -80.5q-3 -10 -12.5 -14.5t-13.5 9.5q1 41 5.5 81t5.5 80zM139 289q-7 -1 -10.5 2t-3.5 7.5t2.5 9t7.5 7.5q5 11 14.5 12.5t11.5 -12.5q-2 -9 -7 -16t-15 -10z" />
<glyph unicode="&#xfb02;" horiz-adv-x="190" d="M-63 279q-7 1 -9 5t-0.5 8.5t5 8.5t7.5 6q17 1 32.5 1.5t32.5 2.5q0 42 3 79.5t11.5 65.5t24 44t40.5 14q13 2 24.5 -3t21 -18.5t16 -37t8.5 -58.5q4 -34 7.5 -79.5t6.5 -96.5t5 -105t3 -105q-3 -10 -12.5 -14.5t-13.5 9.5q-1 56 -3 108t-5 103t-7 102.5t-10 107.5 q-4 25 -17 43.5t-30 14.5q-14 -1 -23.5 -14t-15.5 -35.5t-8.5 -53.5t-1.5 -68q17 2 36 2.5t36 1.5q7 0 10 -4t2 -9t-5 -9.5t-10 -5.5q-17 -1 -32.5 -1.5t-32.5 -2.5q3 -71 11.5 -140t13.5 -124q3 -6 -1.5 -13.5t-12.5 -8.5q-8 1 -11 10q-6 60 -15 130.5t-12 142.5 q-17 -2 -34.5 -2.5t-34.5 -1.5zM50 28l1 -1v1h-1z" />
</font>
</defs>
</svg>
